<svg width="32" height="32" viewBox="0 0 32 32" fill="none" xmlns="http://www.w3.org/2000/svg">
<g clip-path="url(#clip0_47_4193)">
<path d="M8.71128 16.7111H23.2891V19.4489H24.7113V15.2889H16.7113V12.4445H15.2891V15.2889H7.28906V19.4489H8.71128V16.7111Z" fill="#45A293"/>
<path d="M12.4445 20.4445H3.55561C3.08411 20.4445 2.63193 20.6318 2.29853 20.9652C1.96513 21.2986 1.77783 21.7507 1.77783 22.2222V27.5556C1.77783 28.0271 1.96513 28.4793 2.29853 28.8126C2.63193 29.146 3.08411 29.3333 3.55561 29.3333H12.4445C12.916 29.3333 13.3682 29.146 13.7016 28.8126C14.035 28.4793 14.2223 28.0271 14.2223 27.5556V22.2222C14.2223 21.7507 14.035 21.2986 13.7016 20.9652C13.3682 20.6318 12.916 20.4445 12.4445 20.4445ZM3.55561 27.5556V22.2222H12.4445V27.5556H3.55561Z" fill="#45A293"/>
<path d="M28.4445 20.4445H19.5556C19.0841 20.4445 18.6319 20.6318 18.2985 20.9652C17.9651 21.2986 17.7778 21.7507 17.7778 22.2222V27.5556C17.7778 28.0271 17.9651 28.4793 18.2985 28.8126C18.6319 29.146 19.0841 29.3333 19.5556 29.3333H28.4445C28.916 29.3333 29.3682 29.146 29.7016 28.8126C30.035 28.4793 30.2223 28.0271 30.2223 27.5556V22.2222C30.2223 21.7507 30.035 21.2986 29.7016 20.9652C29.3682 20.6318 28.916 20.4445 28.4445 20.4445ZM19.5556 27.5556V22.2222H28.4445V27.5556H19.5556Z" fill="#45A293"/>
<path d="M11.5556 11.5556H20.4445C20.916 11.5556 21.3682 11.3683 21.7016 11.0349C22.035 10.7015 22.2223 10.2493 22.2223 9.7778V4.44446C22.2223 3.97297 22.035 3.52078 21.7016 3.18739C21.3682 2.85399 20.916 2.66669 20.4445 2.66669H11.5556C11.0841 2.66669 10.6319 2.85399 10.2985 3.18739C9.96513 3.52078 9.77783 3.97297 9.77783 4.44446V9.7778C9.77783 10.2493 9.96513 10.7015 10.2985 11.0349C10.6319 11.3683 11.0841 11.5556 11.5556 11.5556ZM11.5556 4.44446H20.4445V9.7778H11.5556V4.44446Z" fill="#45A293"/>
</g>
<defs>
<clipPath id="clip0_47_4193">
<rect width="32" height="32" fill="white"/>
</clipPath>
</defs>
</svg>
