<svg width="33" height="32" viewBox="0 0 33 32" fill="none" xmlns="http://www.w3.org/2000/svg">
<path d="M16.25 14C17.95 14 19.31 12.65 19.31 11C19.31 9.35 17.95 8 16.25 8C14.55 8 13.19 9.35 13.19 11C13.19 12.65 14.55 14 16.25 14ZM16.25 16C13.45 16 11.19 13.76 11.19 11C11.19 8.24 13.45 6 16.25 6C19.05 6 21.31 8.24 21.31 11C21.31 13.76 19.05 16 16.25 16ZM9.25 24H23.25V22.67C23.25 20.92 20.94 19.11 16.25 19.11C11.56 19.11 9.25 20.92 9.25 22.67V24ZM16.25 17.11C22.91 17.11 25.25 20.44 25.25 22.67V26H7.25V22.67C7.25 20.44 9.59 17.11 16.25 17.11Z" fill="#0FB700"/>
</svg>
