<svg width="32" height="32" viewBox="0 0 32 32" fill="none" xmlns="http://www.w3.org/2000/svg">
<path d="M16.5 6.3C15.2623 6.3 14.0753 6.78464 13.2002 7.64731C12.325 8.50998 11.8333 9.68 11.8333 10.9C11.8333 12.12 12.325 13.29 13.2002 14.1527C14.0753 15.0154 15.2623 15.5 16.5 15.5C17.7377 15.5 18.9247 15.0154 19.7998 14.1527C20.675 13.29 21.1667 12.12 21.1667 10.9C21.1667 9.68 20.675 8.50998 19.7998 7.64731C18.9247 6.78464 17.7377 6.3 16.5 6.3ZM9.5 10.9C9.5 9.07001 10.2375 7.31496 11.5503 6.02096C12.863 4.72696 14.6435 4 16.5 4C18.3565 4 20.137 4.72696 21.4497 6.02096C22.7625 7.31496 23.5 9.07001 23.5 10.9C23.5 12.73 22.7625 14.485 21.4497 15.779C20.137 17.073 18.3565 17.8 16.5 17.8C14.6435 17.8 12.863 17.073 11.5503 15.779C10.2375 14.485 9.5 12.73 9.5 10.9ZM11.8333 22.4C10.9051 22.4 10.0148 22.7635 9.35846 23.4105C8.70208 24.0575 8.33333 24.935 8.33333 25.85C8.33333 26.155 8.21042 26.4475 7.99162 26.6632C7.77283 26.8788 7.47609 27 7.16667 27C6.85725 27 6.5605 26.8788 6.34171 26.6632C6.12292 26.4475 6 26.155 6 25.85C6 24.325 6.61458 22.8625 7.70854 21.7841C8.80251 20.7058 10.2862 20.1 11.8333 20.1H21.1667C22.7138 20.1 24.1975 20.7058 25.2915 21.7841C26.3854 22.8625 27 24.325 27 25.85C27 26.155 26.8771 26.4475 26.6583 26.6632C26.4395 26.8788 26.1428 27 25.8333 27C25.5239 27 25.2272 26.8788 25.0084 26.6632C24.7896 26.4475 24.6667 26.155 24.6667 25.85C24.6667 24.935 24.2979 24.0575 23.6415 23.4105C22.9852 22.7635 22.0949 22.4 21.1667 22.4H11.8333Z" fill="#434BFF"/>
</svg>
