<svg width="32" height="32" viewBox="0 0 32 32" fill="none" xmlns="http://www.w3.org/2000/svg">
<path fill-rule="evenodd" clip-rule="evenodd" d="M13.4796 5.03195C11.7153 5.31013 10.2763 6.57293 9.78271 8.27613C9.62678 8.81423 9.57011 9.44502 9.63081 9.96702C9.85394 11.8864 11.1294 13.3809 12.9875 13.9003C13.3536 14.0027 13.4599 14.0131 14.1344 14.0134C14.9773 14.0137 15.2955 13.952 15.9609 13.6593C18.0151 12.7557 19.1086 10.4246 18.486 8.27613C18.0395 6.73545 16.8019 5.53029 15.259 5.13385C14.7825 5.01143 13.9221 4.96216 13.4796 5.03195ZM15.0239 6.01062C16.3441 6.3419 17.4116 7.46486 17.6833 8.80803C17.7782 9.27732 17.7493 10.0544 17.6203 10.5021C17.2755 11.6979 16.3451 12.632 15.1326 12.9995C14.7919 13.1028 14.6833 13.1154 14.1344 13.1154C13.5854 13.1154 13.4769 13.1028 13.1361 12.9995C12.1509 12.7009 11.3543 12.0385 10.9045 11.1439C10.6579 10.6534 10.5626 10.2746 10.5359 9.67881C10.4886 8.62389 10.8097 7.76942 11.5379 7.01235C12.4451 6.06915 13.7561 5.69242 15.0239 6.01062ZM9.34898 15.9248C8.49383 16.0801 7.7958 16.4522 7.16659 17.0883C6.62114 17.6398 6.27334 18.259 6.07484 19.0324C6.00807 19.2926 6 19.5625 6 21.5424V23.7608L6.11775 23.8786L6.23554 23.9964L9.09114 24.0092C11.6758 24.0208 11.9594 24.0154 12.0798 23.9521C12.3243 23.8237 12.3875 23.4779 12.2053 23.266L12.1028 23.1468L9.49743 23.1256L6.89202 23.1044L6.89299 21.2991C6.89384 19.7388 6.90383 19.455 6.96652 19.2079C7.26263 18.0412 8.15337 17.1501 9.32468 16.8488C9.58697 16.7814 9.98333 16.7753 14.1344 16.7753C18.4246 16.7753 18.6735 16.7794 18.9555 16.855C19.5162 17.0052 19.9796 17.2577 20.3805 17.6314C20.6265 17.8607 20.7499 17.9088 20.9505 17.8534C21.1356 17.8023 21.2701 17.6082 21.2703 17.3917C21.2705 17.2639 21.2301 17.2048 20.9752 16.9598C20.4253 16.4312 19.6853 16.0616 18.9043 15.9254C18.4031 15.838 9.83037 15.8375 9.34898 15.9248ZM21.7112 19.5011C21.6615 19.5113 21.58 19.5631 21.53 19.6163C21.48 19.6695 20.9215 20.9253 20.2889 22.4069C19.6562 23.8885 19.1227 25.1175 19.1033 25.1379C19.0839 25.1584 18.7465 24.5372 18.3534 23.7574C17.7028 22.4669 17.6254 22.3331 17.49 22.2655C17.3576 22.1993 17.1895 22.1912 15.9489 22.1912C14.4143 22.1911 14.3232 22.2041 14.2009 22.4405C14.1169 22.603 14.1169 22.7137 14.2009 22.8762C14.3212 23.1089 14.4279 23.1256 15.789 23.1256H17.0216L17.8899 24.8588C18.6691 26.4142 18.773 26.6 18.9031 26.6701C19.0814 26.7661 19.3061 26.7353 19.4325 26.5975C19.4804 26.5453 20.0306 25.3079 20.655 23.8477C21.2795 22.3876 21.81 21.1556 21.8339 21.1101C21.8703 21.0406 22.0666 21.4041 23.0499 23.3613C24.137 25.525 24.2335 25.7009 24.3713 25.7697C24.5038 25.8359 24.6718 25.844 25.9125 25.844C27.02 25.8441 27.3345 25.8318 27.4495 25.7838C27.5989 25.7213 27.727 25.5335 27.727 25.3769C27.727 25.2203 27.5989 25.0324 27.4495 24.97C27.3358 24.9225 27.0415 24.9096 26.0721 24.9096H24.8393L23.5218 22.2768C22.6689 20.5725 22.1707 19.6223 22.1091 19.5824C21.9949 19.5085 21.8346 19.4758 21.7112 19.5011Z" fill="#FF4343" stroke="#FF4343" stroke-width="0.8"/>
</svg>
