<svg width="23" height="18" viewBox="0 0 23 18" fill="none" xmlns="http://www.w3.org/2000/svg">
<path d="M19.55 0C21.4414 0 23 1.52479 23 3.37503V4.49998H0V3.37503C0 1.52479 1.55865 0 3.44998 0H19.55ZM23 6.75006V14.625C23 16.4752 21.4414 18 19.55 18H3.44998C1.55865 18 0 16.4752 0 14.625V6.75006H23ZM8.05027 11.25H4.6003C4.29246 11.2457 3.99576 11.3625 3.77649 11.5738C3.55741 11.7853 3.434 12.0738 3.434 12.375C3.434 12.6761 3.55741 12.9648 3.77649 13.1762C3.99578 13.3877 4.29246 13.5042 4.6003 13.5001H8.05027C8.35811 13.5042 8.65481 13.3877 8.87408 13.1762C9.09317 12.9648 9.21657 12.6761 9.21657 12.375C9.21657 12.0738 9.09317 11.7853 8.87408 11.5738C8.6548 11.3625 8.35811 11.2457 8.05027 11.25Z" fill="#495057"/>
</svg>
