<svg width="14" height="14" viewBox="0 0 14 14" fill="none" xmlns="http://www.w3.org/2000/svg">
<path fill-rule="evenodd" clip-rule="evenodd" d="M11.3941 0.979756C11.1069 1.03739 10.7901 1.17812 10.5607 1.34995C10.436 1.44339 10.0691 1.78685 9.74529 2.11323L9.1566 2.70665L10.6384 4.18815L12.1201 5.66964L12.7499 5.04176C13.4535 4.34027 13.6138 4.13319 13.7556 3.74285C14.0343 2.97509 13.8474 2.1477 13.2632 1.56371C12.7661 1.06671 12.0601 0.846124 11.3941 0.979756ZM4.9085 6.95583C2.21821 9.64842 1.55767 10.3294 1.52893 10.4399C1.50926 10.5155 1.36335 11.231 1.20468 12.0299C1.01252 12.9975 0.925432 13.5187 0.943808 13.5913C0.979028 13.7303 1.09439 13.8457 1.23346 13.8809C1.37996 13.9181 4.37776 13.3226 4.53058 13.2261C4.59112 13.1878 6.12475 11.6708 7.93869 9.85503L11.2368 6.55356L9.76469 5.08133C8.95506 4.27165 8.28356 3.60914 8.27248 3.60914C8.26141 3.60914 6.74761 5.11513 4.9085 6.95583Z" fill="white"/>
</svg>
