<svg width="50" height="70" viewBox="0 0 50 70" fill="none" xmlns="http://www.w3.org/2000/svg">
<g clip-path="url(#clip0_19_36)">
<path fill-rule="evenodd" clip-rule="evenodd" d="M40.7575 60.7613H5.58975C10.1759 66.3973 17.1685 70 25.0027 70C30.9755 70 36.4573 67.9074 40.7575 64.4126C42.0956 63.3231 43.3204 62.0988 44.4103 60.7613H40.7575ZM9.2425 24.9873C9.2425 24.8579 9.2425 24.7284 9.2425 24.599V24.572C9.2425 24.4426 9.25329 24.3186 9.25868 24.1945V24.1675C9.26408 24.0435 9.27487 23.914 9.28566 23.79V23.763C9.29645 23.639 9.30724 23.5149 9.31803 23.3909V23.3585C9.33422 23.2399 9.35041 23.1158 9.3612 22.9972V22.9594C9.38278 22.8408 9.39897 22.7221 9.41515 22.6035V22.5711C9.43674 22.4578 9.45832 22.3446 9.4745 22.2313L9.48529 22.1774C9.50688 22.0695 9.52846 21.9563 9.55004 21.8484L9.56083 21.7837C9.58241 21.6758 9.60399 21.5733 9.63097 21.4655L9.64716 21.3954C9.66874 21.2929 9.69572 21.185 9.7227 21.0826L9.74428 21.0017C9.77125 20.9046 9.79823 20.8075 9.82521 20.7104L9.85219 20.6133C9.87377 20.5324 9.90075 20.4461 9.92772 20.3652L9.97089 20.2304C9.99247 20.1549 10.0194 20.0794 10.041 20.0093L10.0896 19.8637C10.1166 19.7882 10.1435 19.7126 10.1705 19.6371L10.2245 19.4915C10.2515 19.4214 10.2784 19.3513 10.3054 19.2866C10.327 19.2326 10.3486 19.1733 10.3702 19.1194L10.4349 18.9576L10.5104 18.7796L10.586 18.607C10.6183 18.5423 10.6453 18.4722 10.6777 18.4075L10.737 18.2834V18.2672C10.7802 18.1971 10.8126 18.1216 10.8504 18.0515V18.0407L10.9151 17.9221C10.9529 17.8466 10.9906 17.771 11.0338 17.6955L11.0608 17.6416C11.1147 17.5391 11.1687 17.4367 11.228 17.3396L11.2388 17.318C11.2982 17.2101 11.3629 17.0969 11.4277 16.9944L11.4385 16.9782C11.5032 16.865 11.5733 16.7517 11.6435 16.6385C12.3935 15.4411 13.3053 14.3517 14.3412 13.3971L14.4761 13.2784L14.611 13.1598C14.6704 13.1058 14.7297 13.0519 14.7891 12.998L14.8916 12.9117C14.9509 12.8631 15.0103 12.8146 15.0696 12.766L15.1775 12.6797C15.2423 12.6258 15.3124 12.5773 15.3772 12.5233L15.4743 12.4478C15.539 12.3993 15.5984 12.3508 15.6631 12.3076L15.7872 12.2159C15.8412 12.1782 15.8951 12.1404 15.9491 12.0973L16.1002 11.9894L16.262 11.8815L16.4293 11.7737L16.575 11.6766C16.6397 11.6388 16.7045 11.5957 16.7692 11.5579L16.8825 11.4932C16.9527 11.4501 17.0228 11.4123 17.0929 11.3692L17.2062 11.3044C17.2764 11.2667 17.3465 11.2235 17.4221 11.1858L17.5408 11.1211C17.6163 11.0833 17.6864 11.0456 17.762 11.0024L17.8699 10.9485C17.9454 10.9107 18.0264 10.873 18.1019 10.8352L18.2314 10.7705C18.3069 10.7328 18.3878 10.695 18.4688 10.6626L18.5767 10.6141C18.6576 10.5763 18.7386 10.544 18.8195 10.5062L18.9382 10.4577C19.0191 10.4253 19.1054 10.3876 19.1918 10.3552L19.2889 10.3175C19.3752 10.2851 19.4616 10.2474 19.5533 10.215L19.6396 10.1826C19.7313 10.1503 19.823 10.1179 19.9148 10.0856L20.0011 10.0586C20.0928 10.0262 20.1899 9.99926 20.2817 9.9669L20.3572 9.93994C20.4543 9.90758 20.5514 9.88061 20.6486 9.85364L20.7187 9.83207C20.8158 9.8051 20.9183 9.77814 21.0155 9.75117L21.091 9.7296C21.1989 9.70263 21.3068 9.67566 21.4147 9.6487L21.4687 9.63791C21.582 9.61094 21.6953 9.58937 21.8086 9.5624L21.8625 9.55162C21.9758 9.53004 22.0838 9.50847 22.1971 9.4869L22.251 9.47611C22.3589 9.45454 22.4722 9.43836 22.5855 9.42218L22.6449 9.41139C22.7528 9.39521 22.8607 9.37903 22.974 9.36824L23.0442 9.35746C23.1521 9.34667 23.26 9.33049 23.3625 9.3197H23.438C23.5459 9.30352 23.6538 9.29274 23.7618 9.28195H23.8319C23.9452 9.26577 24.0585 9.26038 24.1718 9.25498H24.2204C24.3391 9.2442 24.4578 9.2442 24.5711 9.2388H24.6196C24.7437 9.2388 24.8678 9.23341 24.9919 9.23341H25.0135C25.4236 9.23341 25.8282 9.24959 26.2275 9.27656C26.3624 9.28734 26.4919 9.29813 26.6268 9.31431C27.2904 9.37903 27.9379 9.49229 28.5745 9.63791C28.704 9.66488 28.8281 9.69724 28.9522 9.7296C29.0763 9.76196 29.2058 9.79432 29.3299 9.83207C29.5781 9.90218 29.8263 9.97769 30.0691 10.064C30.1932 10.1071 30.3119 10.1503 30.4306 10.1934C30.5493 10.2366 30.6734 10.2851 30.7921 10.3283C30.9108 10.3768 31.0295 10.4253 31.1482 10.4739C31.3856 10.571 31.6176 10.6788 31.8442 10.7867C32.0762 10.8999 32.3028 11.0132 32.524 11.1319C32.6373 11.1912 32.7452 11.2559 32.8586 11.3152C32.9665 11.38 33.0798 11.4447 33.1877 11.5094C33.2956 11.5741 33.4035 11.6442 33.5114 11.7089C33.6193 11.7791 33.7218 11.8492 33.8297 11.9193C33.9323 11.9894 34.0402 12.0595 34.1427 12.135C34.2452 12.2105 34.3477 12.2806 34.4502 12.3561C34.5527 12.4317 34.6499 12.5072 34.7524 12.5881C34.8495 12.6636 34.952 12.7445 35.0491 12.8254C35.1462 12.9063 35.2434 12.9872 35.3405 13.0681C35.4376 13.149 35.5293 13.2353 35.621 13.3216C35.7128 13.4078 35.8045 13.4941 35.8962 13.5804C35.9879 13.6667 36.0797 13.753 36.166 13.8447C36.2523 13.9364 36.344 14.0227 36.4304 14.1144C36.5167 14.2061 36.603 14.2977 36.6894 14.3894C36.7757 14.4811 36.8566 14.5782 36.9375 14.6699C37.0185 14.767 37.0994 14.864 37.1803 14.9611C37.2613 15.0582 37.3422 15.1553 37.4177 15.2578C37.4933 15.3548 37.5742 15.4573 37.6497 15.5598C37.7253 15.6623 37.8008 15.7647 37.871 15.8672C37.9465 15.9697 38.0166 16.0722 38.0868 16.18C38.1569 16.2825 38.2271 16.3904 38.2972 16.4982C38.3673 16.6061 38.4321 16.714 38.4968 16.8218C38.5616 16.9297 38.6263 17.0376 38.6911 17.1508C38.7558 17.2587 38.8152 17.3719 38.8745 17.4852C38.9339 17.5985 38.9932 17.7117 39.0526 17.825C39.1119 17.9382 39.1659 18.0515 39.2198 18.1648C39.2738 18.278 39.3277 18.3967 39.3817 18.5099C39.4356 18.6286 39.4842 18.7418 39.5328 18.8605C39.5813 18.9792 39.6299 19.0978 39.6785 19.2165C39.727 19.3351 39.7702 19.4538 39.8133 19.5778C39.8565 19.6965 39.8997 19.8205 39.9428 19.9392C39.986 20.0632 40.0238 20.1819 40.0615 20.3059C40.0993 20.43 40.1371 20.554 40.1694 20.6781C40.2072 20.8021 40.2396 20.9261 40.272 21.0556C40.3043 21.1796 40.3367 21.3091 40.3637 21.4331C40.3907 21.5626 40.423 21.6866 40.4446 21.816C40.4716 21.9455 40.4932 22.0749 40.5201 22.2044C40.5417 22.3338 40.5633 22.4632 40.5849 22.5927C40.6065 22.7221 40.6227 22.8516 40.6388 22.9864C40.655 23.1158 40.6712 23.2507 40.682 23.3801C40.6928 23.5149 40.709 23.6444 40.7198 23.7792C40.7306 23.914 40.736 24.0489 40.7468 24.1783C40.7522 24.3132 40.7575 24.448 40.7629 24.5828C40.7629 24.7177 40.7629 24.8525 40.7629 24.9873C40.7629 25.2246 40.7575 25.4619 40.7468 25.6992L40.736 25.8934C40.736 25.9635 40.7252 26.0336 40.7252 26.1037L40.709 26.2925C40.7036 26.3626 40.6982 26.4273 40.6928 26.4975C40.6874 26.5622 40.682 26.6269 40.6712 26.6916C40.6658 26.7563 40.655 26.8211 40.6496 26.8858L40.6227 27.0799C40.6119 27.1447 40.6065 27.2094 40.5957 27.2795C40.5849 27.3442 40.5795 27.4035 40.5687 27.4683C40.5579 27.533 40.5471 27.6031 40.5363 27.6678C40.5255 27.7325 40.5148 27.7919 40.504 27.8512C40.4932 27.9159 40.477 27.986 40.4662 28.0507C40.4554 28.1101 40.4446 28.1694 40.4284 28.2287C40.4122 28.2988 40.4014 28.3635 40.3853 28.4337C40.3745 28.493 40.3583 28.5469 40.3475 28.6062C40.3313 28.6764 40.3151 28.7519 40.2935 28.822L40.2558 28.973C40.2396 29.0431 40.218 29.1186 40.1964 29.1887C40.1802 29.2427 40.1694 29.2966 40.1533 29.3505C40.1317 29.4206 40.1101 29.4854 40.0939 29.5555C40.0777 29.6094 40.0615 29.6633 40.0453 29.7173C40.0238 29.7928 39.9968 29.8629 39.9752 29.9384L39.932 30.0732C39.9051 30.1541 39.8781 30.2296 39.8511 30.3105C39.8349 30.3537 39.8241 30.3914 39.8079 30.4346C39.781 30.5155 39.7486 30.591 39.7216 30.6665C39.7054 30.7096 39.6892 30.7474 39.6731 30.7905C39.6407 30.866 39.6083 30.9416 39.5813 31.0171C39.5651 31.0602 39.549 31.098 39.5274 31.1411C39.495 31.2166 39.4626 31.2921 39.4303 31.3676C39.4141 31.4054 39.3979 31.4485 39.3763 31.4863C39.3385 31.578 39.2954 31.6643 39.2522 31.7506L39.2198 31.8261C39.1713 31.9285 39.1173 32.031 39.0688 32.1281L39.0526 32.1604C39.004 32.2575 38.9501 32.3546 38.8961 32.4571L38.8745 32.5002C38.5724 33.0557 38.2379 33.5897 37.8764 34.102L37.8386 34.1506C37.7792 34.2369 37.7145 34.3232 37.6551 34.4041L37.5958 34.485C37.5418 34.5551 37.4879 34.6306 37.4285 34.7007L37.3476 34.8032C37.2936 34.8679 37.2451 34.9326 37.1911 34.9973L37.1156 35.089C37.0616 35.1537 37.0023 35.2185 36.9483 35.2886L36.8674 35.3803C36.8134 35.445 36.7541 35.5097 36.7001 35.569L36.6084 35.6661C36.5545 35.7254 36.5005 35.7794 36.4466 35.8387C36.4142 35.8764 36.3764 35.9088 36.344 35.9466C36.2901 36.0005 36.2415 36.0544 36.1876 36.1084L36.0905 36.2054C36.0311 36.2594 35.9771 36.3187 35.9178 36.3726C35.8854 36.405 35.853 36.432 35.8207 36.4643C35.7667 36.5183 35.7074 36.5668 35.6534 36.6207C35.6156 36.6531 35.5779 36.6908 35.5401 36.7232C35.4808 36.7771 35.4268 36.8257 35.3675 36.8742L35.2649 36.9605C35.2056 37.0144 35.1462 37.063 35.0815 37.1169L34.9736 37.2032C34.9142 37.2518 34.8495 37.3057 34.7847 37.3542L34.6768 37.4405C34.6175 37.4891 34.5581 37.5322 34.4934 37.5807L34.3693 37.6724C34.3099 37.7156 34.2506 37.7587 34.1912 37.8019L34.0671 37.8882C34.0024 37.9313 33.943 37.9745 33.8783 38.0176L33.765 38.0931C33.7002 38.1363 33.6355 38.1794 33.5654 38.2225L33.4413 38.2981C33.3765 38.3412 33.3118 38.379 33.247 38.4167L33.1175 38.4922C33.0528 38.53 32.988 38.5677 32.9233 38.6055L32.7938 38.681C32.7291 38.7187 32.6643 38.7565 32.5942 38.7942L32.4593 38.8644C32.3945 38.8967 32.3298 38.9345 32.265 38.9668L32.1248 39.0369C32.06 39.0693 31.9899 39.1017 31.9251 39.134L31.7848 39.1987C31.7201 39.2311 31.65 39.2635 31.5852 39.2904L31.4449 39.3551C31.3748 39.3875 31.3046 39.4199 31.2345 39.4468L31.105 39.5008C31.0295 39.5331 30.9593 39.5601 30.8838 39.5925L30.7489 39.6464C30.6734 39.6734 30.5978 39.7057 30.5223 39.7327L30.3982 39.7812C30.3173 39.8082 30.2363 39.8405 30.1554 39.8675L30.0421 39.9053C29.9612 39.9322 29.8802 39.9592 29.7993 39.9862L29.6752 40.0239C29.5997 40.0455 29.5187 40.0725 29.4378 40.094C29.3946 40.1048 29.3461 40.121 29.3029 40.1318C29.222 40.1534 29.1411 40.1749 29.0547 40.1965L28.9306 40.2289C28.8497 40.2504 28.7742 40.2666 28.6932 40.2882C28.6447 40.299 28.5961 40.3098 28.5476 40.3206C28.4612 40.3421 28.3803 40.3583 28.294 40.3745L28.1753 40.4015C28.0835 40.4176 27.9972 40.4338 27.9055 40.4554L27.7922 40.477C27.7005 40.4931 27.6087 40.5093 27.517 40.5201C27.4792 40.5255 27.4415 40.5309 27.4037 40.5363C27.3066 40.5525 27.2095 40.5633 27.1124 40.5794L27.0152 40.5902C26.9073 40.6064 26.7994 40.6172 26.6915 40.628H26.6268C26.5135 40.6442 26.3948 40.6549 26.2761 40.6657H26.2275C25.8282 40.6981 25.4236 40.7143 25.0189 40.7143C24.6142 40.7143 24.2096 40.6981 23.8103 40.6657H23.7725C23.6538 40.6549 23.5297 40.6441 23.411 40.6334H23.3571C23.2438 40.6172 23.1305 40.601 23.0172 40.5902L22.9362 40.5794C22.8337 40.5686 22.7312 40.5525 22.6287 40.5363L22.5316 40.5201C22.4345 40.5039 22.3427 40.4877 22.2456 40.4716L22.1431 40.45C22.0514 40.4338 21.9543 40.4122 21.8625 40.3961L21.7546 40.3745C21.6683 40.3583 21.5766 40.3367 21.4903 40.3152C21.4471 40.3044 21.4039 40.2936 21.3608 40.2828C21.2798 40.2612 21.1935 40.245 21.1126 40.2235L20.9993 40.1911C20.9129 40.1695 20.8266 40.148 20.7403 40.121L20.6216 40.0886C20.5353 40.0617 20.4543 40.0401 20.3734 40.0131L20.2601 39.9754C20.1738 39.9484 20.0874 39.9214 20.0065 39.8945L19.8986 39.8567C19.8123 39.8298 19.7313 39.7974 19.6504 39.7704L19.5317 39.7273C19.4508 39.7003 19.3752 39.668 19.2943 39.6356L19.1702 39.5871C19.0947 39.5547 19.0137 39.5223 18.9382 39.49L18.8195 39.4414C18.744 39.4091 18.6684 39.3767 18.5929 39.3444L18.4634 39.285C18.3932 39.2527 18.3231 39.2203 18.2476 39.1826L18.1181 39.1178C18.0479 39.0855 17.9778 39.0477 17.9076 39.01L17.7836 38.9453C17.7134 38.9075 17.6433 38.8697 17.5731 38.832L17.449 38.7673C17.3789 38.7295 17.3088 38.6918 17.2386 38.6486L17.1199 38.5785C17.0498 38.5408 16.985 38.4976 16.9149 38.4599L16.7962 38.3897C16.726 38.3466 16.6613 38.3034 16.5912 38.2657L16.4725 38.1902C16.4023 38.147 16.3376 38.1039 16.2728 38.0554L16.1649 37.9798C16.1002 37.9367 16.03 37.8882 15.9653 37.845L15.852 37.7641C15.7872 37.7156 15.7225 37.6724 15.6577 37.6239L15.5444 37.5376C15.4851 37.4891 15.4203 37.4459 15.361 37.3974L15.2477 37.3111C15.1883 37.2625 15.1236 37.214 15.0642 37.1655L14.9563 37.0738C14.897 37.0252 14.8376 36.9767 14.7837 36.9282C14.7459 36.8958 14.7081 36.8634 14.6704 36.8311C14.611 36.7825 14.5571 36.7286 14.4977 36.6801L14.3898 36.583C14.3304 36.529 14.2765 36.4805 14.2225 36.4266L14.12 36.3295C14.0607 36.2756 14.0067 36.2162 13.9474 36.1623L13.8556 36.0706C13.7963 36.0113 13.7369 35.952 13.683 35.8926L13.5967 35.8009C13.5427 35.7416 13.4887 35.6877 13.4348 35.6284L13.3377 35.5205C13.2837 35.4612 13.2298 35.4018 13.1758 35.3371L13.0895 35.24C13.0355 35.1753 12.9816 35.1106 12.9276 35.0459L12.8467 34.9542C12.7927 34.8895 12.7442 34.8247 12.6902 34.76L12.6093 34.6576C12.5553 34.5874 12.5014 34.5119 12.442 34.4418L12.3827 34.3609C12.3179 34.2746 12.2586 34.1937 12.1992 34.1074L12.1615 34.0589C12.0967 33.9726 12.0374 33.8809 11.978 33.7892L11.951 33.7461C11.6705 33.3308 11.4061 32.8993 11.1687 32.4571C11.1525 32.4247 11.1309 32.387 11.1147 32.3546C11.0716 32.2791 11.0338 32.1982 10.9906 32.1227L10.9475 32.031C10.9043 31.9501 10.8665 31.8692 10.8234 31.7829C10.8072 31.7452 10.791 31.7074 10.7694 31.6697C10.7317 31.5941 10.6939 31.5132 10.6615 31.4377C10.6399 31.3946 10.6237 31.3514 10.6022 31.3083C10.5698 31.2382 10.5428 31.1681 10.5104 31.098C10.4889 31.044 10.4673 30.9901 10.4457 30.9362C10.4187 30.8714 10.3917 30.8067 10.3648 30.742C10.3432 30.6881 10.327 30.6395 10.3054 30.5856C10.2784 30.5209 10.2515 30.4508 10.2299 30.386C10.2137 30.3375 10.1921 30.2836 10.1759 30.2296C10.1489 30.1595 10.1274 30.0894 10.1058 30.0247C10.0896 29.9761 10.0734 29.9222 10.0572 29.8737C10.0356 29.8036 10.0141 29.7334 9.98707 29.6633C9.97089 29.6094 9.9547 29.5609 9.93851 29.5069C9.91693 29.4368 9.89535 29.3613 9.87377 29.2912C9.85758 29.2427 9.84679 29.1887 9.8306 29.1402C9.80902 29.0701 9.79284 29 9.77125 28.9298C9.75507 28.8759 9.74428 28.822 9.72809 28.768C9.7119 28.6925 9.69032 28.6224 9.67414 28.5469C9.66335 28.4984 9.65255 28.4444 9.64176 28.3905C9.62558 28.3204 9.60939 28.2449 9.5932 28.1748C9.58241 28.1155 9.57162 28.0561 9.55543 27.9968C9.54464 27.9267 9.52846 27.862 9.51767 27.7919C9.50688 27.7325 9.49608 27.6732 9.48529 27.6193C9.4745 27.5492 9.45832 27.4736 9.44753 27.4035C9.43673 27.3496 9.43134 27.2957 9.42055 27.2363C9.40976 27.1608 9.39897 27.0907 9.38818 27.0152C9.38278 26.9559 9.37199 26.8966 9.36659 26.8426C9.3558 26.7725 9.35041 26.697 9.33961 26.6269C9.33422 26.5676 9.32882 26.5082 9.32343 26.4435C9.31803 26.3734 9.31264 26.3033 9.30724 26.2386C9.30724 26.1739 9.29645 26.1145 9.29106 26.0498C9.29106 25.9797 9.28027 25.9096 9.28027 25.8395C9.28027 25.7801 9.27487 25.7208 9.26947 25.6615C9.26947 25.559 9.25868 25.4565 9.25868 25.3541C9.25868 25.2192 9.25868 25.0898 9.25868 24.955V24.9442L9.2425 24.9873ZM3.63119 12.011C3.31285 12.5287 3.0161 13.0573 2.74093 13.602V13.6182C2.64381 13.7962 2.55209 13.9741 2.46576 14.1521C2.37944 14.3355 2.29311 14.5189 2.21217 14.6969V14.713C2.12585 14.891 2.04491 15.0744 1.96938 15.2524L1.95859 15.2739C1.88305 15.4519 1.80751 15.6353 1.73737 15.8133L1.72658 15.8402C1.65644 16.0236 1.5863 16.207 1.51616 16.3904V16.4011C1.44062 16.5899 1.37587 16.7787 1.31113 16.9728C0.982003 17.9382 0.712229 18.936 0.5072 19.95C0.464036 20.1495 0.426268 20.3545 0.3885 20.554V20.5648C0.350731 20.7643 0.318358 20.9693 0.285985 21.1742V21.185C0.221239 21.5949 0.167285 22.0102 0.124121 22.4309C0.0377928 23.2776 -0.00537109 24.1244 -0.00537109 24.9873C-0.00537109 28.2233 0.609715 31.3137 1.72658 34.1506C1.83989 34.4418 1.95319 34.7223 2.07729 34.9973C2.10426 35.0621 2.13664 35.1268 2.16362 35.1915L2.22297 35.3209C2.37404 35.6553 2.5359 35.9843 2.69777 36.3133L2.76791 36.4427C2.83266 36.5722 2.9028 36.6962 2.96754 36.8203L3.03229 36.9389C3.11862 37.1007 3.21034 37.2571 3.30206 37.4189L3.32904 37.4621C3.40997 37.6077 3.4963 37.7479 3.58263 37.8882L3.65817 38.0122C3.7337 38.1363 3.80924 38.2549 3.88478 38.379L3.95492 38.4868C4.05743 38.6432 4.15455 38.7942 4.25707 38.9506L4.27865 38.9776C4.37577 39.1178 4.46749 39.2581 4.56461 39.3929L4.64554 39.5116C4.73187 39.6356 4.82359 39.7596 4.91531 39.8837L4.96927 39.9592C5.08257 40.1102 5.19588 40.2558 5.30919 40.4068L5.34695 40.45C5.44947 40.5794 5.55198 40.7035 5.6545 40.8275L5.74082 40.9354C5.84334 41.0594 5.94585 41.1835 6.05376 41.3021L6.09693 41.3507C6.22102 41.4909 6.34512 41.6311 6.46922 41.7714L6.52317 41.8307C6.63108 41.9493 6.73899 42.0626 6.8469 42.1759L6.93862 42.2729C7.05193 42.3916 7.17063 42.5156 7.28933 42.6343L7.3217 42.6667C7.45659 42.8015 7.59148 42.9309 7.72636 43.0658L7.78032 43.1197C7.89362 43.2276 8.01233 43.3408 8.13103 43.4433L8.21735 43.5242C8.49252 43.7777 8.77848 44.0204 9.06445 44.2577L9.1238 44.3062C9.24789 44.4087 9.37199 44.5058 9.49609 44.6082L9.58241 44.6784C9.87916 44.9103 10.1759 45.1368 10.4835 45.3525L10.5482 45.4011C10.6831 45.4981 10.8234 45.5952 10.9583 45.6869L11.023 45.7301C11.3359 45.9404 11.6597 46.1453 11.9834 46.3449L12.0535 46.3881C12.1992 46.4743 12.3395 46.5606 12.4852 46.6415L12.5553 46.6793C12.8898 46.8681 13.2244 47.0514 13.5643 47.2294L13.629 47.2618C13.7909 47.3427 13.9528 47.4236 14.1146 47.5045L14.1416 47.5206C14.4923 47.6878 14.8484 47.8496 15.2099 48.0007L15.28 48.0276C15.4473 48.0977 15.6092 48.1678 15.7764 48.2326L15.8142 48.2487C16.1811 48.3944 16.548 48.5292 16.9203 48.6532L16.985 48.6748C17.5462 48.8636 18.1181 49.0308 18.6954 49.1818L18.744 49.1926C19.1324 49.2951 19.5317 49.3813 19.9256 49.4676H19.931C20.1198 49.5054 20.3086 49.5431 20.4975 49.5755L20.5676 49.5863C20.9669 49.6564 21.3662 49.7157 21.7708 49.7697H21.787C21.9758 49.7966 22.1701 49.8182 22.3643 49.8398H22.4291C22.8337 49.8883 23.2438 49.9207 23.6592 49.9422H23.697C23.8912 49.953 24.0855 49.9584 24.2743 49.9638H24.3337C24.5387 49.9692 24.7491 49.9746 24.9542 49.9746C30.927 49.9746 36.4088 47.882 40.709 44.3871C43.7844 41.89 46.2556 38.6702 47.8688 34.9919C49.1907 31.9771 49.9299 28.6494 49.9569 25.1491C49.9569 25.0952 49.9569 25.0359 49.9569 24.9819V0.749706C46.6278 1.68275 43.8492 3.94795 42.2359 6.92507C41.7935 6.50439 41.3349 6.09449 40.8601 5.70617L40.7144 5.58752C40.6119 5.50662 40.5148 5.42572 40.4122 5.34482L40.3745 5.31785C40.2234 5.1992 40.0723 5.08594 39.9212 4.97268H39.9105C39.754 4.84864 39.5975 4.73537 39.441 4.62212L39.4087 4.60054C39.2576 4.49268 39.1065 4.3902 38.9555 4.28773L38.9123 4.26076C38.7558 4.15829 38.5994 4.05042 38.4429 3.95334L38.4213 3.94256C38.2594 3.84008 38.0922 3.73222 37.9249 3.63514L37.9033 3.61896C37.7469 3.52188 37.585 3.43019 37.4285 3.3385L37.3692 3.30614C37.2127 3.21446 37.0562 3.12816 36.8998 3.04187L36.8566 3.0203C36.6893 2.92861 36.5221 2.84232 36.3548 2.75602L36.3009 2.72906C36.1444 2.64816 35.9825 2.56726 35.8261 2.49175L35.7559 2.45939C35.5995 2.38388 35.443 2.30838 35.2811 2.23826L35.2164 2.2113C35.0437 2.1304 34.8657 2.05489 34.6876 1.97938H34.6822C34.5096 1.90388 34.3315 1.83376 34.1535 1.76365L34.0779 1.73668C33.9161 1.67196 33.7488 1.60724 33.5815 1.54792L33.5222 1.52635C33.3441 1.46162 33.1607 1.39691 32.9826 1.33758H32.9665C32.783 1.26747 32.5942 1.20814 32.4107 1.14881L32.3568 1.13263C32.1841 1.0787 32.0115 1.03016 31.8388 0.981619L31.7633 0.960046C31.5852 0.911506 31.4126 0.862966 31.2345 0.814426L31.1913 0.803639C31.0025 0.755099 30.8137 0.706559 30.6248 0.663413L30.5709 0.652626C30.3928 0.609479 30.2094 0.571726 30.0259 0.533973L29.9666 0.523186C29.7831 0.485433 29.5997 0.453073 29.4216 0.420713L29.3677 0.409926C29.1734 0.377566 28.9792 0.345206 28.785 0.312846H28.7472C28.5583 0.280486 28.3695 0.25352 28.1807 0.226553H28.1213C27.9325 0.194193 27.749 0.17262 27.5602 0.15644H27.5062C27.3066 0.129473 27.1016 0.113293 26.9019 0.097113H26.8803C26.6807 0.0809331 26.4865 0.0701464 26.2868 0.0593597H26.2221C26.0333 0.0485731 25.839 0.0377864 25.6502 0.0323931H25.5962C25.3912 0.0269998 25.1808 0.0216064 24.9757 0.0216064C24.7761 0.0216064 24.5765 0.0216064 24.3822 0.0269998H24.3121C24.1233 0.0323931 23.9344 0.0431798 23.7456 0.0485731H23.6592C23.4704 0.0647531 23.287 0.0755397 23.1035 0.0863264H23.0118C22.8283 0.1079 22.6395 0.12408 22.456 0.14026H22.3805C22.1917 0.167226 21.9974 0.1888 21.8086 0.215766H21.7708C21.5766 0.242733 21.3877 0.2697 21.1989 0.30206H21.1719C20.9831 0.334419 20.7942 0.366779 20.6054 0.399139L20.5353 0.409926C20.3518 0.442286 20.1738 0.474646 19.9957 0.512399L19.9148 0.528579C19.7367 0.566333 19.5533 0.604086 19.3752 0.647233L19.3051 0.663413C19.127 0.706559 18.9436 0.749706 18.7655 0.792852L18.6954 0.809032C18.5119 0.857572 18.3285 0.906112 18.1504 0.954652H18.1289C17.7512 1.06791 17.3735 1.18657 17.0012 1.31061L16.9473 1.32679C16.7692 1.38612 16.5965 1.45084 16.4185 1.51016L16.3591 1.53174C16.1865 1.59646 16.0192 1.66118 15.8466 1.7259L15.7764 1.75286C15.6038 1.82298 15.4365 1.8877 15.2693 1.9632L15.2261 1.98478C15.048 2.06028 14.8754 2.13579 14.7027 2.21669H14.6865C14.5085 2.30298 14.3304 2.38928 14.1524 2.47018H14.1416C13.9689 2.55647 13.8017 2.64276 13.6344 2.72906L13.5859 2.75602C13.424 2.84232 13.2567 2.92861 13.0949 3.0149L13.0463 3.04187C12.8845 3.12816 12.728 3.21446 12.5715 3.30614L12.5068 3.3439C12.3503 3.43558 12.1884 3.52727 12.032 3.62435L12.005 3.64053C11.6705 3.84548 11.3413 4.05582 11.023 4.27155L11.0068 4.28234C10.8504 4.38481 10.6993 4.49268 10.5482 4.60054L10.4996 4.6329C10.354 4.73538 10.2083 4.84324 10.0626 4.95111L10.0087 4.99426C9.86837 5.10212 9.72809 5.20999 9.58781 5.31785L9.52306 5.36639C9.38278 5.47965 9.2425 5.58752 9.10761 5.70078L9.06445 5.73314C8.76769 5.97584 8.48173 6.22933 8.19577 6.48281L8.17959 6.49899C8.0447 6.62304 7.90442 6.75248 7.76953 6.87653L7.72636 6.91967C7.59687 7.04372 7.46738 7.16777 7.34328 7.29181L7.28393 7.35114C7.15984 7.47519 7.03574 7.59923 6.91704 7.72867L6.86309 7.788C6.73899 7.91744 6.62029 8.04688 6.50159 8.18171L6.46382 8.22486C6.33972 8.35969 6.22102 8.49452 6.10232 8.63475H6.09693V8.64554C5.18509 9.69724 4.35958 10.8244 3.63119 12.0218V12.011Z" fill="black"/>
</g>
<defs>
<clipPath id="clip0_19_36">
<rect width="50" height="70" fill="white"/>
</clipPath>
</defs>
</svg>
