<svg width="18" height="24" viewBox="0 0 18 24" fill="none" xmlns="http://www.w3.org/2000/svg">
<path fill-rule="evenodd" clip-rule="evenodd" d="M14.6727 20.8324H2.01229C3.66331 22.7648 6.18063 24 9.00096 24C11.1512 24 13.1246 23.2825 14.6727 22.0843C15.1544 21.7108 15.5953 21.291 15.9877 20.8324H14.6727ZM3.32728 8.56706C3.32728 8.52268 3.32728 8.4783 3.32728 8.43392V8.42468C3.32728 8.3803 3.33116 8.33777 3.33311 8.29524V8.28599C3.33505 8.24346 3.33893 8.19908 3.34282 8.15655V8.1473C3.3467 8.10477 3.35059 8.06224 3.35447 8.01971V8.00862C3.3603 7.96794 3.36613 7.92541 3.37001 7.88473V7.87178C3.37778 7.8311 3.38361 7.79042 3.38944 7.74974V7.73864C3.3972 7.69981 3.40497 7.66098 3.4108 7.62215L3.41469 7.60366C3.42246 7.56667 3.43023 7.52784 3.43799 7.49086L3.44188 7.46867C3.44965 7.43169 3.45742 7.39655 3.46713 7.35957L3.47296 7.33553C3.48073 7.3004 3.49044 7.26341 3.50015 7.22828L3.50792 7.20054C3.51763 7.16726 3.52734 7.13398 3.53706 7.10069L3.54677 7.06741C3.55454 7.03967 3.56425 7.01008 3.57396 6.98235L3.5895 6.93612C3.59727 6.91023 3.60698 6.88434 3.61475 6.8603L3.63223 6.81038C3.64194 6.78449 3.65166 6.7586 3.66137 6.73271L3.68079 6.68278C3.6905 6.65875 3.70022 6.63471 3.70993 6.61252C3.7177 6.59403 3.72547 6.57369 3.73324 6.55519L3.75654 6.49972L3.78374 6.4387L3.81093 6.37953C3.82259 6.35734 3.8323 6.3333 3.84395 6.31111L3.86532 6.26858V6.26303C3.88086 6.23899 3.89251 6.2131 3.90611 6.18906V6.18537L3.92942 6.14468C3.94301 6.1188 3.95661 6.09291 3.97215 6.06702L3.98186 6.04853C4.00128 6.0134 4.02071 5.97826 4.04207 5.94498L4.04596 5.93758C4.06732 5.9006 4.09063 5.86177 4.11394 5.82663L4.11783 5.82108C4.14113 5.78225 4.16639 5.74342 4.19164 5.70459C4.46163 5.29408 4.78989 4.92055 5.16282 4.59326L5.21138 4.55257L5.25994 4.51189C5.28131 4.4934 5.30268 4.47491 5.32404 4.45642L5.36095 4.42683C5.38231 4.41019 5.40368 4.39355 5.42505 4.37691L5.46389 4.34732C5.4872 4.32883 5.51245 4.31219 5.53576 4.29369L5.57072 4.26781C5.59403 4.25116 5.6154 4.23452 5.63871 4.21973L5.68338 4.18829C5.70281 4.17535 5.72223 4.16241 5.74165 4.14761L5.79604 4.11063L5.85431 4.07365L5.91452 4.03666L5.96697 4.00338C5.99028 3.99043 6.01359 3.97564 6.03689 3.9627L6.07768 3.94051C6.10293 3.92571 6.12819 3.91277 6.15344 3.89798L6.19423 3.87579C6.21948 3.86284 6.24473 3.84805 6.27192 3.83511L6.31465 3.81292C6.34185 3.79997 6.3671 3.78703 6.39429 3.77224L6.43314 3.75374C6.46033 3.7408 6.48947 3.72786 6.51666 3.71491L6.56328 3.69272C6.59047 3.67978 6.61961 3.66684 6.64874 3.65574L6.68759 3.6391C6.71672 3.62615 6.74586 3.61506 6.775 3.60212L6.81773 3.58547C6.84686 3.57438 6.87794 3.56143 6.90902 3.55034L6.94398 3.5374C6.97506 3.5263 7.00614 3.51336 7.03916 3.50226L7.07024 3.49117C7.10326 3.48007 7.13628 3.46898 7.1693 3.45788L7.20038 3.44864C7.2334 3.43754 7.26836 3.4283 7.30138 3.4172L7.32857 3.40796C7.36354 3.39686 7.3985 3.38762 7.43346 3.37837L7.45871 3.37097C7.49368 3.36173 7.53058 3.35248 7.56554 3.34324L7.59274 3.33584C7.63158 3.32659 7.67043 3.31735 7.70928 3.3081L7.7287 3.3044C7.76949 3.29516 7.81028 3.28776 7.85107 3.27852L7.8705 3.27482C7.91129 3.26742 7.95013 3.26002 7.99092 3.25263L8.01035 3.24893C8.0492 3.24153 8.08998 3.23599 8.13077 3.23044L8.15214 3.22674C8.19099 3.22119 8.22984 3.21565 8.27063 3.21195L8.29588 3.20825C8.33472 3.20455 8.37357 3.199 8.41048 3.1953H8.43767C8.47652 3.18976 8.51536 3.18606 8.55421 3.18236H8.57946C8.62025 3.17681 8.66104 3.17496 8.70183 3.17311H8.71931C8.76205 3.16942 8.80478 3.16942 8.84557 3.16757H8.86305C8.90773 3.16757 8.9524 3.16572 8.99707 3.16572H9.00484C9.15246 3.16572 9.29814 3.17127 9.44188 3.18051C9.49044 3.18421 9.53705 3.18791 9.58561 3.19346C9.82453 3.21565 10.0576 3.25448 10.2868 3.3044C10.3334 3.31365 10.3781 3.32474 10.4228 3.33584C10.4675 3.34693 10.5141 3.35803 10.5587 3.37097C10.6481 3.39501 10.7374 3.4209 10.8249 3.45049C10.8695 3.46528 10.9123 3.48007 10.955 3.49487C10.9977 3.50966 11.0424 3.5263 11.0851 3.54109C11.1279 3.55774 11.1706 3.57438 11.2133 3.59102C11.2988 3.62431 11.3823 3.66129 11.4639 3.69827C11.5474 3.7371 11.629 3.77593 11.7086 3.81662C11.7494 3.83696 11.7883 3.85915 11.8291 3.87949C11.8679 3.90168 11.9087 3.92387 11.9475 3.94606C11.9864 3.96825 12.0252 3.99228 12.0641 4.01447C12.1029 4.03851 12.1398 4.06255 12.1787 4.08659C12.2156 4.11063 12.2544 4.13467 12.2913 4.16056C12.3282 4.18644 12.3652 4.21048 12.4021 4.23637C12.439 4.26226 12.4739 4.28815 12.5108 4.31588C12.5458 4.34177 12.5827 4.36951 12.6177 4.39725C12.6526 4.42498 12.6876 4.45272 12.7226 4.48046C12.7575 4.50819 12.7905 4.53778 12.8236 4.56737C12.8566 4.59695 12.8896 4.62654 12.9226 4.65613C12.9556 4.68571 12.9887 4.7153 13.0197 4.74673C13.0508 4.77817 13.0838 4.80776 13.1149 4.83919C13.146 4.87063 13.1771 4.90206 13.2081 4.9335C13.2392 4.96493 13.2684 4.99822 13.2975 5.02965C13.3266 5.06294 13.3558 5.09622 13.3849 5.12951C13.414 5.16279 13.4432 5.19608 13.4704 5.23121C13.4976 5.26449 13.5267 5.29963 13.5539 5.33476C13.5811 5.36989 13.6083 5.40503 13.6335 5.44016C13.6607 5.4753 13.686 5.51043 13.7112 5.54741C13.7365 5.58255 13.7617 5.61953 13.787 5.65651C13.8122 5.69349 13.8355 5.73048 13.8588 5.76746C13.8821 5.80444 13.9055 5.84143 13.9288 5.88026C13.9521 5.91724 13.9734 5.95607 13.9948 5.9949C14.0162 6.03374 14.0375 6.07257 14.0589 6.1114C14.0803 6.15023 14.0997 6.18906 14.1191 6.2279C14.1385 6.26673 14.158 6.30741 14.1774 6.34624C14.1968 6.38692 14.2143 6.42575 14.2318 6.46644C14.2493 6.50712 14.2667 6.5478 14.2842 6.58848C14.3017 6.62916 14.3172 6.66984 14.3328 6.71237C14.3483 6.75305 14.3639 6.79558 14.3794 6.83626C14.3949 6.87879 14.4085 6.91948 14.4221 6.96201C14.4357 7.00454 14.4493 7.04707 14.461 7.0896C14.4746 7.13213 14.4862 7.17466 14.4979 7.21904C14.5095 7.26157 14.5212 7.30595 14.5309 7.34848C14.5406 7.39286 14.5523 7.43539 14.56 7.47976C14.5698 7.52414 14.5775 7.56852 14.5872 7.6129C14.595 7.65728 14.6028 7.70166 14.6105 7.74604C14.6183 7.79042 14.6241 7.8348 14.63 7.88103C14.6358 7.92541 14.6416 7.97164 14.6455 8.01602C14.6494 8.06224 14.6552 8.10662 14.6591 8.15285C14.663 8.19908 14.6649 8.24531 14.6688 8.28969C14.6708 8.33592 14.6727 8.38215 14.6746 8.42837C14.6746 8.4746 14.6746 8.52083 14.6746 8.56706C14.6746 8.64842 14.6727 8.72978 14.6688 8.81115L14.6649 8.87772C14.6649 8.90175 14.661 8.92579 14.661 8.94983L14.6552 9.01455C14.6533 9.03859 14.6513 9.06078 14.6494 9.08482C14.6474 9.10701 14.6455 9.1292 14.6416 9.15139C14.6397 9.17358 14.6358 9.19577 14.6338 9.21796L14.6241 9.28453C14.6203 9.30672 14.6183 9.32891 14.6144 9.35294C14.6105 9.37513 14.6086 9.39547 14.6047 9.41766C14.6008 9.43985 14.5969 9.46389 14.5931 9.48608C14.5892 9.50827 14.5853 9.52861 14.5814 9.54895C14.5775 9.57114 14.5717 9.59518 14.5678 9.61737C14.5639 9.63771 14.56 9.65805 14.5542 9.67839C14.5484 9.70243 14.5445 9.72462 14.5387 9.74866C14.5348 9.769 14.529 9.78749 14.5251 9.80783C14.5192 9.83187 14.5134 9.85776 14.5057 9.8818L14.4921 9.93357C14.4862 9.95761 14.4785 9.9835 14.4707 10.0075C14.4649 10.026 14.461 10.0445 14.4552 10.063C14.4474 10.0871 14.4396 10.1092 14.4338 10.1333C14.428 10.1518 14.4221 10.1703 14.4163 10.1888C14.4085 10.2146 14.3988 10.2387 14.3911 10.2646L14.3755 10.3108C14.3658 10.3385 14.3561 10.3644 14.3464 10.3922C14.3406 10.407 14.3367 10.4199 14.3308 10.4347C14.3211 10.4624 14.3095 10.4883 14.2998 10.5142C14.2939 10.529 14.2881 10.5419 14.2823 10.5567C14.2706 10.5826 14.259 10.6085 14.2493 10.6344C14.2434 10.6492 14.2376 10.6621 14.2298 10.6769C14.2182 10.7028 14.2065 10.7287 14.1949 10.7546C14.189 10.7675 14.1832 10.7823 14.1754 10.7953C14.1619 10.8267 14.1463 10.8563 14.1308 10.8859L14.1191 10.9118C14.1016 10.9469 14.0822 10.982 14.0647 11.0153L14.0589 11.0264C14.0414 11.0597 14.022 11.093 14.0026 11.1281L13.9948 11.1429C13.886 11.3334 13.7656 11.5164 13.6355 11.6921L13.6219 11.7087C13.6005 11.7383 13.5772 11.7679 13.5558 11.7957L13.5345 11.8234C13.515 11.8474 13.4956 11.8733 13.4743 11.8974L13.4451 11.9325C13.4257 11.9547 13.4082 11.9769 13.3888 11.9991L13.3616 12.0305C13.3422 12.0527 13.3208 12.0749 13.3014 12.0989L13.2722 12.1304C13.2528 12.1525 13.2315 12.1747 13.212 12.1951L13.179 12.2284C13.1596 12.2487 13.1402 12.2672 13.1207 12.2875C13.1091 12.3005 13.0955 12.3116 13.0838 12.3245C13.0644 12.343 13.0469 12.3615 13.0275 12.38L12.9925 12.4133C12.9712 12.4318 12.9518 12.4521 12.9304 12.4706C12.9187 12.4817 12.9071 12.4909 12.8954 12.502C12.876 12.5205 12.8546 12.5372 12.8352 12.5557C12.8216 12.5668 12.808 12.5797 12.7944 12.5908C12.7731 12.6093 12.7536 12.6259 12.7323 12.6426L12.6954 12.6722C12.674 12.6906 12.6526 12.7073 12.6293 12.7258L12.5905 12.7554C12.5691 12.772 12.5458 12.7905 12.5225 12.8071L12.4836 12.8367C12.4623 12.8534 12.4409 12.8682 12.4176 12.8848L12.3729 12.9162C12.3516 12.931 12.3302 12.9458 12.3088 12.9606L12.2642 12.9902C12.2408 13.005 12.2195 13.0198 12.1962 13.0346L12.1554 13.0605C12.1321 13.0753 12.1088 13.0901 12.0835 13.1049L12.0388 13.1307C12.0155 13.1455 11.9922 13.1585 11.9689 13.1714L11.9223 13.1973C11.899 13.2103 11.8757 13.2232 11.8524 13.2361L11.8057 13.262C11.7824 13.275 11.7591 13.2879 11.7339 13.3009L11.6853 13.3249C11.662 13.336 11.6387 13.3489 11.6154 13.36L11.5649 13.3841C11.5416 13.3952 11.5163 13.4063 11.493 13.4174L11.4425 13.4395C11.4192 13.4506 11.394 13.4617 11.3707 13.471L11.3202 13.4932C11.2949 13.5043 11.2697 13.5154 11.2444 13.5246L11.1978 13.5431C11.1706 13.5542 11.1453 13.5634 11.1181 13.5745L11.0696 13.593C11.0424 13.6023 11.0152 13.6134 10.988 13.6226L10.9433 13.6393C10.9142 13.6485 10.8851 13.6596 10.8559 13.6688L10.8151 13.6818C10.786 13.691 10.7569 13.7003 10.7277 13.7095L10.6831 13.7225C10.6559 13.7299 10.6267 13.7391 10.5976 13.7465C10.5821 13.7502 10.5646 13.7557 10.549 13.7594C10.5199 13.7668 10.4908 13.7742 10.4597 13.7816L10.415 13.7927C10.3859 13.8001 10.3587 13.8057 10.3295 13.8131C10.3121 13.8168 10.2946 13.8205 10.2771 13.8242C10.246 13.8316 10.2169 13.8371 10.1858 13.8427L10.1431 13.8519C10.1101 13.8575 10.079 13.863 10.046 13.8704L10.0052 13.8778C9.97215 13.8833 9.93913 13.8889 9.90611 13.8926C9.89251 13.8944 9.87891 13.8963 9.86532 13.8981C9.83035 13.9037 9.79539 13.9074 9.76043 13.9129L9.72546 13.9166C9.68662 13.9222 9.64777 13.9259 9.60892 13.9296H9.58561C9.54482 13.9351 9.50209 13.9388 9.45936 13.9425H9.44188C9.29814 13.9536 9.15246 13.9592 9.00679 13.9592C8.86111 13.9592 8.71543 13.9536 8.57169 13.9425H8.5581C8.51537 13.9388 8.47069 13.9351 8.42796 13.9314H8.40853C8.36774 13.9259 8.32695 13.9203 8.28616 13.9166L8.25703 13.9129C8.22012 13.9092 8.18322 13.9037 8.14631 13.8981L8.11135 13.8926C8.07639 13.887 8.04337 13.8815 8.0084 13.8759L7.9715 13.8685C7.93848 13.863 7.90352 13.8556 7.8705 13.8501L7.83165 13.8427C7.80057 13.8371 7.76755 13.8297 7.73647 13.8223C7.72093 13.8186 7.70539 13.8149 7.68986 13.8112C7.66072 13.8038 7.62964 13.7983 7.60051 13.7909L7.55972 13.7798C7.52864 13.7724 7.49756 13.765 7.46648 13.7557L7.42375 13.7447C7.39267 13.7354 7.36354 13.728 7.3344 13.7188L7.29361 13.7058C7.26253 13.6966 7.23145 13.6873 7.20232 13.6781L7.16347 13.6651C7.13239 13.6559 7.10326 13.6448 7.07412 13.6356L7.03139 13.6208C7.00225 13.6115 6.97506 13.6004 6.94592 13.5893L6.90125 13.5727C6.87406 13.5616 6.84492 13.5505 6.81773 13.5394L6.775 13.5228C6.7478 13.5117 6.72061 13.5006 6.69342 13.4895L6.6468 13.4691C6.62155 13.458 6.5963 13.4469 6.5691 13.434L6.52249 13.4118C6.49724 13.4007 6.47199 13.3878 6.44673 13.3748L6.40206 13.3526C6.37681 13.3397 6.35156 13.3267 6.32631 13.3138L6.28163 13.2916C6.25638 13.2787 6.23113 13.2657 6.20588 13.2509L6.16315 13.2269C6.1379 13.214 6.11459 13.1992 6.08934 13.1862L6.04661 13.1622C6.02135 13.1474 5.99805 13.1326 5.9728 13.1196L5.93006 13.0938C5.90481 13.079 5.8815 13.0642 5.85819 13.0475L5.81935 13.0216C5.79604 13.0068 5.77079 12.9902 5.74748 12.9754L5.70669 12.9477C5.68338 12.931 5.66007 12.9162 5.63676 12.8996L5.59597 12.87C5.57461 12.8534 5.5513 12.8386 5.52993 12.8219L5.48914 12.7923C5.46778 12.7757 5.44447 12.7591 5.4231 12.7424L5.38425 12.711C5.36289 12.6943 5.34152 12.6777 5.3221 12.6611C5.3085 12.65 5.29491 12.6389 5.28131 12.6278C5.25994 12.6111 5.24052 12.5926 5.21915 12.576L5.18031 12.5427C5.15894 12.5242 5.13952 12.5076 5.12009 12.4891L5.08319 12.4558C5.06182 12.4373 5.0424 12.417 5.02103 12.3985L4.98801 12.367C4.96664 12.3467 4.94528 12.3264 4.92585 12.306L4.89478 12.2746C4.87535 12.2542 4.85593 12.2358 4.83651 12.2154L4.80154 12.1784C4.78212 12.1581 4.76269 12.1378 4.74327 12.1156L4.71219 12.0823C4.69277 12.0601 4.67335 12.0379 4.65392 12.0157L4.62479 11.9843C4.60536 11.9621 4.58788 11.9399 4.56846 11.9177L4.53932 11.8826C4.5199 11.8585 4.50047 11.8326 4.47911 11.8086L4.45774 11.7809C4.43443 11.7513 4.41307 11.7235 4.3917 11.694L4.3781 11.6773C4.3548 11.6477 4.33343 11.6163 4.31206 11.5849L4.30235 11.5701C4.20135 11.4277 4.10617 11.2797 4.02071 11.1281C4.01488 11.117 4.00711 11.1041 4.00128 11.093C3.98574 11.0671 3.97215 11.0394 3.95661 11.0135L3.94107 10.982C3.92553 10.9543 3.91193 10.9266 3.8964 10.897C3.89057 10.884 3.88474 10.8711 3.87697 10.8581C3.86337 10.8323 3.84978 10.8045 3.83812 10.7786C3.83035 10.7638 3.82453 10.749 3.81676 10.7343C3.8051 10.7102 3.79539 10.6862 3.78374 10.6621C3.77597 10.6436 3.7682 10.6252 3.76043 10.6067C3.75072 10.5845 3.74101 10.5623 3.73129 10.5401C3.72352 10.5216 3.7177 10.505 3.70993 10.4865C3.70022 10.4643 3.6905 10.4402 3.68273 10.418C3.67691 10.4014 3.66914 10.3829 3.66331 10.3644C3.6536 10.3404 3.64583 10.3163 3.63806 10.2942C3.63223 10.2775 3.62641 10.259 3.62058 10.2424C3.61281 10.2183 3.60504 10.1943 3.59533 10.1703C3.5895 10.1518 3.58367 10.1351 3.57785 10.1166C3.57008 10.0926 3.56231 10.0667 3.55454 10.0427C3.54871 10.026 3.54483 10.0075 3.539 9.9909C3.53123 9.96686 3.5254 9.94282 3.51763 9.91878C3.51181 9.90029 3.50792 9.8818 3.50209 9.86331C3.49627 9.83742 3.4885 9.81338 3.48267 9.78749C3.47878 9.77085 3.4749 9.75236 3.47102 9.73387C3.46519 9.70983 3.45936 9.68394 3.45353 9.6599C3.44965 9.63956 3.44576 9.61922 3.43994 9.59888C3.43605 9.57484 3.43022 9.55265 3.42634 9.52861C3.42246 9.50827 3.41857 9.48793 3.41469 9.46944C3.4108 9.4454 3.40497 9.41951 3.40109 9.39547C3.3972 9.37698 3.39526 9.35849 3.39138 9.33815C3.38749 9.31226 3.38361 9.28822 3.37972 9.26234C3.37778 9.242 3.3739 9.22166 3.37195 9.20316C3.36807 9.17912 3.36613 9.15324 3.36224 9.1292C3.3603 9.10886 3.35836 9.08852 3.35642 9.06633C3.35447 9.04229 3.35253 9.01825 3.35059 8.99606C3.35059 8.97387 3.3467 8.95353 3.34476 8.93134C3.34476 8.9073 3.34088 8.88326 3.34088 8.85922C3.34088 8.83888 3.33893 8.81854 3.33699 8.7982C3.33699 8.76307 3.33311 8.72793 3.33311 8.6928C3.33311 8.64657 3.33311 8.60219 3.33311 8.55596V8.55227L3.32728 8.56706ZM1.30721 4.11803C1.19261 4.29554 1.08578 4.47676 0.986716 4.66352V4.66907C0.951753 4.73009 0.918733 4.79111 0.887655 4.85213C0.856577 4.91501 0.825499 4.97788 0.796363 5.0389V5.04445C0.765285 5.10547 0.73615 5.16834 0.708956 5.22936L0.705072 5.23676C0.677878 5.29778 0.650685 5.36065 0.625434 5.42167L0.62155 5.43092C0.596299 5.49379 0.571048 5.55666 0.545797 5.61953V5.62323C0.518604 5.68795 0.495295 5.75267 0.471987 5.81924C0.353502 6.15023 0.256383 6.49232 0.182573 6.83996C0.167034 6.90838 0.153437 6.97865 0.13984 7.04707V7.05076C0.126244 7.11918 0.114589 7.18945 0.102935 7.25972V7.26341C0.0796267 7.40395 0.0602029 7.54633 0.0446639 7.69057C0.0135859 7.98088 -0.00195312 8.2712 -0.00195312 8.56706C-0.00195312 9.67654 0.219478 10.7361 0.62155 11.7087C0.662339 11.8086 0.703129 11.9048 0.747804 11.9991C0.757516 12.0213 0.76917 12.0434 0.778882 12.0656L0.800248 12.11C0.854635 12.2247 0.912906 12.3375 0.971177 12.4503L0.996428 12.4946C1.01974 12.539 1.04499 12.5815 1.0683 12.6241L1.0916 12.6648C1.12268 12.7202 1.1557 12.7739 1.18872 12.8293L1.19844 12.8441C1.22757 12.894 1.25865 12.9421 1.28973 12.9902L1.31692 13.0327C1.34411 13.0753 1.37131 13.1159 1.3985 13.1585L1.42375 13.1955C1.46066 13.2491 1.49562 13.3009 1.53252 13.3545L1.54029 13.3637C1.57526 13.4118 1.60828 13.4599 1.64324 13.5061L1.67237 13.5468C1.70345 13.5893 1.73647 13.6319 1.76949 13.6744L1.78892 13.7003C1.82971 13.7521 1.8705 13.802 1.91129 13.8538L1.92488 13.8685C1.96179 13.9129 1.99869 13.9555 2.0356 13.998L2.06668 14.035C2.10358 14.0775 2.14049 14.12 2.17934 14.1607L2.19487 14.1774C2.23955 14.2254 2.28422 14.2735 2.3289 14.3216L2.34832 14.3419C2.38717 14.3826 2.42602 14.4214 2.46486 14.4603L2.49788 14.4936C2.53867 14.5342 2.58141 14.5768 2.62414 14.6174L2.63579 14.6285C2.68435 14.6748 2.73291 14.7192 2.78147 14.7654L2.8009 14.7839C2.84169 14.8209 2.88442 14.8597 2.92715 14.8948L2.95823 14.9226C3.05729 15.0095 3.16023 15.0927 3.26318 15.174L3.28455 15.1907C3.32922 15.2258 3.3739 15.2591 3.41857 15.2942L3.44965 15.3183C3.55648 15.3978 3.66331 15.4754 3.77403 15.5494L3.79733 15.5661C3.84589 15.5993 3.8964 15.6326 3.94495 15.6641L3.96826 15.6789C4.08092 15.751 4.19746 15.8212 4.31401 15.8897L4.33926 15.9045C4.3917 15.934 4.4422 15.9636 4.49465 15.9914L4.5199 16.0043C4.64033 16.069 4.76075 16.1319 4.88312 16.1929L4.90643 16.204C4.9647 16.2317 5.02297 16.2595 5.08124 16.2872L5.09096 16.2928C5.21721 16.3501 5.34541 16.4056 5.47555 16.4573L5.5008 16.4666C5.56101 16.4906 5.61928 16.5147 5.6795 16.5369L5.69309 16.5424C5.82517 16.5923 5.95726 16.6386 6.09128 16.6811L6.11459 16.6885C6.3166 16.7532 6.52249 16.8105 6.73032 16.8623L6.7478 16.866C6.88765 16.9011 7.03139 16.9307 7.17318 16.9603H7.17513C7.24311 16.9733 7.31109 16.9862 7.37908 16.9973L7.40433 17.001C7.54806 17.025 7.6918 17.0454 7.83748 17.0639H7.8433C7.91129 17.0731 7.98121 17.0805 8.05114 17.0879H8.07445C8.22012 17.1045 8.36774 17.1156 8.51731 17.123H8.5309C8.60083 17.1267 8.67076 17.1286 8.73874 17.1304H8.7601C8.83391 17.1323 8.90967 17.1341 8.98348 17.1341C11.1337 17.1341 13.1071 16.4167 14.6552 15.2184C15.7624 14.3623 16.652 13.2583 17.2327 11.9972C17.7086 10.9635 17.9747 9.82263 17.9844 8.62253C17.9844 8.60404 17.9844 8.5837 17.9844 8.56521V0.257019C16.786 0.576921 15.7857 1.35356 15.2049 2.37429C15.0456 2.23005 14.8805 2.08952 14.7096 1.95638L14.6572 1.9157C14.6203 1.88796 14.5853 1.86022 14.5484 1.83249L14.5348 1.82324C14.4804 1.78256 14.426 1.74373 14.3716 1.7049H14.3677C14.3114 1.66237 14.2551 1.62353 14.1988 1.5847L14.1871 1.57731C14.1327 1.54032 14.0783 1.50519 14.0239 1.47006L14.0084 1.46081C13.9521 1.42568 13.8957 1.38869 13.8394 1.35541L13.8316 1.35171C13.7734 1.31658 13.7132 1.27959 13.653 1.24631L13.6452 1.24076C13.5889 1.20748 13.5306 1.17604 13.4743 1.14461L13.4529 1.13351C13.3966 1.10208 13.3402 1.07249 13.2839 1.0429L13.2684 1.03551C13.2081 1.00407 13.1479 0.974486 13.0877 0.9449L13.0683 0.935654C13.012 0.907917 12.9537 0.88018 12.8974 0.854292L12.8721 0.843197C12.8158 0.817309 12.7595 0.791421 12.7012 0.767382L12.6779 0.758137C12.6157 0.730399 12.5516 0.704511 12.4875 0.678623H12.4856C12.4234 0.652736 12.3593 0.628697 12.2952 0.604658L12.268 0.595412C12.2098 0.573222 12.1496 0.551033 12.0893 0.530692L12.068 0.523296C12.0039 0.501106 11.9378 0.478916 11.8737 0.458576H11.8679C11.8019 0.434537 11.7339 0.414196 11.6678 0.393856L11.6484 0.388308C11.5863 0.369817 11.5241 0.353175 11.4619 0.336532L11.4348 0.329136C11.3707 0.312494 11.3085 0.295851 11.2444 0.279209L11.2289 0.275511C11.1609 0.258868 11.0929 0.242226 11.0249 0.227433L11.0055 0.223735C10.9414 0.208942 10.8754 0.195998 10.8093 0.183054L10.7879 0.179355C10.7219 0.166411 10.6559 0.155317 10.5918 0.144222L10.5723 0.140523C10.5024 0.129429 10.4325 0.118334 10.3626 0.107239H10.349C10.281 0.096144 10.213 0.0868983 10.145 0.0776526H10.1237C10.0557 0.0665578 9.98963 0.0591612 9.92165 0.0536138H9.90222C9.83035 0.0443681 9.75654 0.0388207 9.68468 0.0332732H9.67691C9.60504 0.0277258 9.53511 0.0240275 9.46324 0.0203292H9.43994C9.37195 0.016631 9.30203 0.0129327 9.23404 0.0110835H9.21462C9.14081 0.00923439 9.06506 0.00738525 8.99125 0.00738525C8.91938 0.00738525 8.84751 0.00738525 8.77759 0.0092344H8.75233C8.68435 0.0110835 8.61637 0.0147818 8.54838 0.016631H8.51731C8.44932 0.0221784 8.38328 0.0258767 8.31724 0.0295749H8.28422C8.21818 0.0369715 8.1502 0.0425189 8.08416 0.0480664H8.05696C7.98898 0.0573121 7.91905 0.0647086 7.85107 0.0739543H7.83748C7.76755 0.0832 7.69957 0.0924457 7.63158 0.103541H7.62187C7.55389 0.114635 7.48591 0.12573 7.41792 0.136825L7.39267 0.140523C7.32663 0.151618 7.26253 0.162713 7.19843 0.175657L7.1693 0.181205C7.1052 0.194149 7.03916 0.207093 6.97506 0.221886L6.94981 0.227433C6.88571 0.242226 6.81967 0.257019 6.75557 0.271812L6.73032 0.27736C6.66428 0.294002 6.59824 0.310644 6.53414 0.327287H6.52637C6.39041 0.366119 6.25444 0.4068 6.12042 0.44933L6.10099 0.454877C6.03689 0.475218 5.97474 0.497408 5.91064 0.517748L5.88927 0.525145C5.82712 0.547334 5.7669 0.569524 5.70475 0.591714L5.6795 0.60096C5.61734 0.624998 5.55713 0.647188 5.49691 0.673076L5.48137 0.680473C5.41728 0.706361 5.35512 0.732249 5.29296 0.759986H5.28714C5.22304 0.789572 5.15894 0.819158 5.09484 0.846895H5.09096C5.0288 0.876482 4.96859 0.906068 4.90837 0.935654L4.89089 0.9449C4.83262 0.974486 4.77241 1.00407 4.71414 1.03366L4.69665 1.0429C4.63838 1.07249 4.58205 1.10208 4.52572 1.13351L4.50242 1.14646C4.44609 1.17789 4.38782 1.20933 4.33149 1.24261L4.32178 1.24816C4.20135 1.31843 4.08286 1.39054 3.96826 1.46451L3.96244 1.46821C3.90611 1.50334 3.85172 1.54032 3.79733 1.57731L3.77985 1.5884C3.72741 1.62353 3.67496 1.66052 3.62252 1.6975L3.6031 1.71229C3.55259 1.74928 3.50209 1.78626 3.45159 1.82324L3.42828 1.83988C3.37778 1.87872 3.32728 1.9157 3.27872 1.95453L3.26318 1.96563C3.15635 2.04884 3.0534 2.13575 2.95046 2.22266L2.94463 2.2282C2.89607 2.27073 2.84557 2.31511 2.79701 2.35764L2.78147 2.37244C2.73485 2.41497 2.68824 2.4575 2.64356 2.50003L2.6222 2.52037C2.57752 2.5629 2.53285 2.60543 2.49012 2.64981L2.47069 2.67015C2.42602 2.71453 2.38328 2.75891 2.34055 2.80514L2.32696 2.81993C2.28228 2.86616 2.23955 2.91239 2.19682 2.96046H2.19487V2.96416C1.86661 3.32474 1.56943 3.71122 1.30721 4.12172V4.11803Z" fill="white"/>
</svg>
