<svg width="149" height="99" viewBox="0 0 149 99" fill="none" xmlns="http://www.w3.org/2000/svg">
<rect x="44" width="61" height="61" rx="30.5" fill="#9943EC"/>
<g clip-path="url(#clip0_392_5789)">
<path fill-rule="evenodd" clip-rule="evenodd" d="M83.9545 44.8526H62.8538C65.6055 47.9927 69.801 49.9999 74.5016 49.9999C78.0852 49.9999 81.3743 48.8341 83.9545 46.8869C84.7573 46.2799 85.4922 45.5978 86.1461 44.8526H83.9545ZM65.0454 24.9214C65.0454 24.8493 65.0454 24.7772 65.0454 24.7051V24.6901C65.0454 24.6179 65.0519 24.5488 65.0551 24.4797V24.4647C65.0584 24.3956 65.0648 24.3235 65.0713 24.2544V24.2393C65.0778 24.1702 65.0843 24.1011 65.0907 24.032V24.014C65.1005 23.9479 65.1102 23.8787 65.1166 23.8126V23.7916C65.1296 23.7255 65.1393 23.6594 65.149 23.5933V23.5753C65.162 23.5122 65.1749 23.4491 65.1846 23.386L65.1911 23.3559C65.2041 23.2958 65.217 23.2327 65.23 23.1726L65.2364 23.1365C65.2494 23.0765 65.2623 23.0194 65.2785 22.9593L65.2882 22.9202C65.3012 22.8631 65.3174 22.803 65.3335 22.7459L65.3465 22.7008C65.3627 22.6468 65.3789 22.5927 65.3951 22.5386L65.4112 22.4845C65.4242 22.4394 65.4404 22.3913 65.4566 22.3463L65.4825 22.2712C65.4954 22.2291 65.5116 22.187 65.5245 22.148L65.5537 22.0668C65.5699 22.0248 65.5861 21.9827 65.6022 21.9406L65.6346 21.8595C65.6508 21.8204 65.667 21.7814 65.6832 21.7453C65.6961 21.7153 65.7091 21.6822 65.722 21.6522L65.7609 21.562L65.8062 21.4628L65.8515 21.3667C65.8709 21.3306 65.8871 21.2916 65.9065 21.2555L65.9422 21.1864V21.1774C65.9681 21.1383 65.9875 21.0963 66.0101 21.0572V21.0512L66.049 20.9851C66.0716 20.943 66.0943 20.9009 66.1202 20.8589L66.1364 20.8288C66.1688 20.7717 66.2011 20.7146 66.2367 20.6606L66.2432 20.6485C66.2788 20.5884 66.3177 20.5253 66.3565 20.4682L66.363 20.4592C66.4019 20.3961 66.4439 20.333 66.486 20.2699C66.936 19.6028 67.4831 18.9959 68.1047 18.464L68.1856 18.3979L68.2665 18.3318C68.3021 18.3017 68.3378 18.2717 68.3734 18.2416L68.4349 18.1936C68.4705 18.1665 68.5061 18.1395 68.5417 18.1124L68.6064 18.0644C68.6453 18.0343 68.6874 18.0073 68.7262 17.9772L68.7845 17.9351C68.8233 17.9081 68.859 17.8811 68.8978 17.857L68.9723 17.8059C69.0046 17.7849 69.037 17.7639 69.0694 17.7398L69.16 17.6797L69.2571 17.6196L69.3575 17.5595L69.4449 17.5055C69.4838 17.4844 69.5226 17.4604 69.5614 17.4393L69.6294 17.4033C69.6715 17.3792 69.7136 17.3582 69.7557 17.3342L69.8237 17.2981C69.8658 17.2771 69.9078 17.253 69.9532 17.232L70.0244 17.196C70.0697 17.1749 70.1118 17.1539 70.1571 17.1298L70.2219 17.0998C70.2672 17.0788 70.3157 17.0577 70.3611 17.0367L70.4388 17.0006C70.4841 16.9796 70.5326 16.9586 70.5812 16.9405L70.6459 16.9135C70.6945 16.8925 70.7431 16.8744 70.7916 16.8534L70.8628 16.8264C70.9114 16.8083 70.9632 16.7873 71.015 16.7693L71.0733 16.7482C71.1251 16.7302 71.1769 16.7092 71.2319 16.6911L71.2837 16.6731C71.3387 16.6551 71.3938 16.6371 71.4488 16.619L71.5006 16.604C71.5556 16.586 71.6139 16.5709 71.6689 16.5529L71.7142 16.5379C71.7725 16.5199 71.8308 16.5048 71.8891 16.4898L71.9311 16.4778C71.9894 16.4628 72.0509 16.4477 72.1092 16.4327L72.1545 16.4207C72.2193 16.4057 72.284 16.3907 72.3488 16.3756L72.3811 16.3696C72.4491 16.3546 72.5171 16.3426 72.5851 16.3275L72.6175 16.3215C72.6854 16.3095 72.7502 16.2975 72.8182 16.2855L72.8505 16.2795C72.9153 16.2675 72.9833 16.2584 73.0513 16.2494L73.0869 16.2434C73.1516 16.2344 73.2164 16.2254 73.2843 16.2194L73.3264 16.2134C73.3912 16.2074 73.4559 16.1983 73.5174 16.1923H73.5627C73.6275 16.1833 73.6922 16.1773 73.757 16.1713H73.7991C73.867 16.1623 73.935 16.1593 74.003 16.1563H74.0322C74.1034 16.1503 74.1746 16.1503 74.2426 16.1473H74.2717C74.3462 16.1473 74.4206 16.1443 74.4951 16.1443H74.508C74.7541 16.1443 74.9969 16.1533 75.2364 16.1683C75.3174 16.1743 75.3951 16.1803 75.476 16.1893C75.8742 16.2254 76.2626 16.2885 76.6446 16.3696C76.7223 16.3846 76.7968 16.4027 76.8713 16.4207C76.9457 16.4387 77.0234 16.4568 77.0979 16.4778C77.2468 16.5169 77.3957 16.5589 77.5414 16.607C77.6158 16.631 77.6871 16.6551 77.7583 16.6791C77.8295 16.7032 77.904 16.7302 77.9752 16.7542C78.0464 16.7813 78.1176 16.8083 78.1888 16.8354C78.3313 16.8895 78.4705 16.9496 78.6064 17.0097C78.7456 17.0728 78.8816 17.1359 79.0143 17.202C79.0823 17.235 79.1471 17.2711 79.2151 17.3041C79.2798 17.3402 79.3478 17.3762 79.4125 17.4123C79.4773 17.4484 79.542 17.4874 79.6068 17.5235C79.6715 17.5625 79.733 17.6016 79.7978 17.6407C79.8593 17.6797 79.924 17.7188 79.9855 17.7609C80.047 17.8029 80.1085 17.842 80.1701 17.8841C80.2316 17.9261 80.2898 17.9682 80.3513 18.0133C80.4096 18.0553 80.4711 18.1004 80.5294 18.1455C80.5877 18.1906 80.6459 18.2356 80.7042 18.2807C80.7625 18.3258 80.8175 18.3739 80.8726 18.4219C80.9276 18.47 80.9826 18.5181 81.0377 18.5662C81.0927 18.6142 81.1477 18.6623 81.1995 18.7134C81.2513 18.7645 81.3063 18.8126 81.3581 18.8636C81.4099 18.9147 81.4617 18.9658 81.5135 19.0169C81.5653 19.068 81.6139 19.1221 81.6625 19.1731C81.711 19.2272 81.7596 19.2813 81.8081 19.3354C81.8567 19.3895 81.9052 19.4436 81.9506 19.5007C81.9959 19.5548 82.0445 19.6119 82.0898 19.6689C82.1351 19.726 82.1804 19.7831 82.2225 19.8402C82.2678 19.8973 82.3099 19.9544 82.352 20.0145C82.3941 20.0716 82.4362 20.1317 82.4783 20.1918C82.5203 20.2519 82.5592 20.312 82.598 20.3721C82.6369 20.4322 82.6757 20.4923 82.7146 20.5554C82.7534 20.6155 82.789 20.6786 82.8246 20.7417C82.8603 20.8048 82.8959 20.8679 82.9315 20.931C82.9671 20.9941 82.9995 21.0572 83.0318 21.1203C83.0642 21.1834 83.0966 21.2495 83.1289 21.3126C83.1613 21.3787 83.1905 21.4418 83.2196 21.5079C83.2487 21.574 83.2779 21.6401 83.307 21.7062C83.3361 21.7723 83.362 21.8385 83.3879 21.9076C83.4138 21.9737 83.4397 22.0428 83.4656 22.1089C83.4915 22.178 83.5142 22.2441 83.5368 22.3132C83.5595 22.3823 83.5822 22.4514 83.6016 22.5206C83.6243 22.5897 83.6437 22.6588 83.6631 22.7309C83.6825 22.8 83.7019 22.8721 83.7181 22.9412C83.7343 23.0134 83.7537 23.0825 83.7667 23.1546C83.7829 23.2267 83.7958 23.2988 83.812 23.3709C83.825 23.443 83.8379 23.5152 83.8509 23.5873C83.8638 23.6594 83.8735 23.7315 83.8832 23.8066C83.8929 23.8787 83.9027 23.9539 83.9091 24.026C83.9156 24.1011 83.9253 24.1732 83.9318 24.2483C83.9383 24.3235 83.9415 24.3986 83.948 24.4707C83.9512 24.5458 83.9545 24.6209 83.9577 24.6961C83.9577 24.7712 83.9577 24.8463 83.9577 24.9214C83.9577 25.0536 83.9545 25.1859 83.948 25.3181L83.9415 25.4262C83.9415 25.4653 83.935 25.5044 83.935 25.5434L83.9253 25.6486C83.9221 25.6877 83.9188 25.7237 83.9156 25.7628C83.9124 25.7989 83.9091 25.8349 83.9027 25.871C83.8994 25.907 83.8929 25.9431 83.8897 25.9791L83.8735 26.0873C83.8671 26.1234 83.8638 26.1594 83.8573 26.1985C83.8509 26.2346 83.8476 26.2676 83.8412 26.3037C83.8347 26.3397 83.8282 26.3788 83.8217 26.4148C83.8153 26.4509 83.8088 26.484 83.8023 26.517C83.7958 26.5531 83.7861 26.5921 83.7796 26.6282C83.7732 26.6612 83.7667 26.6943 83.757 26.7274C83.7473 26.7664 83.7408 26.8025 83.7311 26.8415C83.7246 26.8746 83.7149 26.9046 83.7084 26.9377C83.6987 26.9768 83.689 27.0188 83.676 27.0579L83.6534 27.142C83.6437 27.1811 83.6307 27.2232 83.6178 27.2622C83.6081 27.2923 83.6016 27.3223 83.5919 27.3524C83.5789 27.3914 83.566 27.4275 83.5563 27.4665C83.5466 27.4966 83.5368 27.5266 83.5271 27.5567C83.5142 27.5988 83.498 27.6378 83.485 27.6799L83.4592 27.755C83.443 27.8001 83.4268 27.8422 83.4106 27.8872C83.4009 27.9113 83.3944 27.9323 83.3847 27.9563C83.3685 28.0014 83.3491 28.0435 83.3329 28.0855C83.3232 28.1096 83.3135 28.1306 83.3038 28.1547C83.2843 28.1967 83.2649 28.2388 83.2487 28.2809C83.239 28.3049 83.2293 28.3259 83.2164 28.35C83.1969 28.392 83.1775 28.4341 83.1581 28.4762C83.1484 28.4972 83.1387 28.5212 83.1257 28.5423C83.103 28.5934 83.0772 28.6414 83.0513 28.6895L83.0318 28.7316C83.0027 28.7887 82.9703 28.8458 82.9412 28.8999L82.9315 28.9179C82.9023 28.972 82.87 29.0261 82.8376 29.0832L82.8246 29.1072C82.6434 29.4167 82.4426 29.7142 82.2257 29.9996L82.2031 30.0267C82.1675 30.0748 82.1286 30.1228 82.093 30.1679L82.0574 30.213C82.025 30.252 81.9927 30.2941 81.957 30.3332L81.9085 30.3903C81.8761 30.4263 81.847 30.4624 81.8146 30.4984L81.7693 30.5495C81.7369 30.5856 81.7013 30.6216 81.6689 30.6607L81.6204 30.7118C81.588 30.7478 81.5524 30.7839 81.52 30.817L81.465 30.871C81.4326 30.9041 81.4002 30.9341 81.3679 30.9672C81.3484 30.9882 81.3258 31.0063 81.3064 31.0273C81.274 31.0573 81.2448 31.0874 81.2125 31.1174L81.1542 31.1715C81.1186 31.2016 81.0862 31.2346 81.0506 31.2647C81.0312 31.2827 81.0118 31.2977 80.9923 31.3158C80.96 31.3458 80.9244 31.3729 80.892 31.4029C80.8693 31.4209 80.8467 31.442 80.824 31.46C80.7884 31.49 80.756 31.5171 80.7204 31.5441L80.6589 31.5922C80.6233 31.6223 80.5877 31.6493 80.5488 31.6793L80.4841 31.7274C80.4485 31.7545 80.4096 31.7845 80.3708 31.8116L80.306 31.8596C80.2704 31.8867 80.2348 31.9107 80.196 31.9378L80.1215 31.9888C80.0859 32.0129 80.0503 32.0369 80.0147 32.061L79.9402 32.109C79.9014 32.1331 79.8658 32.1571 79.8269 32.1812L79.7589 32.2232C79.7201 32.2473 79.6812 32.2713 79.6391 32.2953L79.5647 32.3374C79.5258 32.3615 79.487 32.3825 79.4481 32.4035L79.3704 32.4456C79.3316 32.4666 79.2928 32.4877 79.2539 32.5087L79.1762 32.5508C79.1374 32.5718 79.0985 32.5928 79.0564 32.6139L78.9755 32.6529C78.9366 32.671 78.8978 32.692 78.859 32.71L78.7748 32.7491C78.7359 32.7671 78.6939 32.7851 78.655 32.8032L78.5708 32.8392C78.532 32.8573 78.4899 32.8753 78.4511 32.8903L78.3669 32.9264C78.3248 32.9444 78.2827 32.9624 78.2406 32.9774L78.1629 33.0075C78.1176 33.0255 78.0755 33.0406 78.0302 33.0586L77.9493 33.0886C77.904 33.1037 77.8586 33.1217 77.8133 33.1367L77.7389 33.1637C77.6903 33.1788 77.6417 33.1968 77.5932 33.2118L77.5252 33.2329C77.4766 33.2479 77.4281 33.2629 77.3795 33.2779L77.3051 33.299C77.2597 33.311 77.2112 33.326 77.1626 33.338C77.1367 33.344 77.1076 33.3531 77.0817 33.3591C77.0331 33.3711 76.9846 33.3831 76.9328 33.3951L76.8583 33.4132C76.8097 33.4252 76.7644 33.4342 76.7159 33.4462C76.6867 33.4522 76.6576 33.4582 76.6285 33.4642C76.5767 33.4763 76.5281 33.4853 76.4763 33.4943L76.4051 33.5093C76.3501 33.5183 76.2983 33.5273 76.2432 33.5394L76.1752 33.5514C76.1202 33.5604 76.0652 33.5694 76.0101 33.5754C75.9875 33.5784 75.9648 33.5814 75.9422 33.5844C75.8839 33.5934 75.8256 33.5995 75.7673 33.6085L75.7091 33.6145C75.6443 33.6235 75.5796 33.6295 75.5148 33.6355H75.476C75.408 33.6445 75.3368 33.6505 75.2656 33.6565H75.2364C74.9969 33.6746 74.7541 33.6836 74.5113 33.6836C74.2685 33.6836 74.0257 33.6746 73.7861 33.6565H73.7635C73.6922 33.6505 73.6178 33.6445 73.5466 33.6385H73.5142C73.4462 33.6295 73.3782 33.6205 73.3102 33.6145L73.2617 33.6085C73.2002 33.6025 73.1387 33.5934 73.0771 33.5844L73.0189 33.5754C72.9606 33.5664 72.9056 33.5574 72.8473 33.5484L72.7858 33.5364C72.7308 33.5273 72.6725 33.5153 72.6175 33.5063L72.5527 33.4943C72.5009 33.4853 72.4459 33.4732 72.3941 33.4612C72.3682 33.4552 72.3423 33.4492 72.3164 33.4432C72.2678 33.4312 72.216 33.4222 72.1675 33.4101L72.0995 33.3921C72.0477 33.3801 71.9959 33.3681 71.9441 33.3531L71.8729 33.335C71.8211 33.32 71.7725 33.308 71.724 33.293L71.656 33.2719C71.6042 33.2569 71.5524 33.2419 71.5038 33.2269L71.4391 33.2058C71.3873 33.1908 71.3387 33.1728 71.2902 33.1577L71.2189 33.1337C71.1704 33.1187 71.1251 33.1006 71.0765 33.0826L71.002 33.0556C70.9567 33.0375 70.9082 33.0195 70.8628 33.0015L70.7916 32.9744C70.7463 32.9564 70.701 32.9384 70.6557 32.9204L70.578 32.8873C70.5359 32.8693 70.4938 32.8512 70.4485 32.8302L70.3708 32.7942C70.3287 32.7761 70.2866 32.7551 70.2445 32.7341L70.1701 32.698C70.128 32.677 70.0859 32.6559 70.0438 32.6349L69.9693 32.5988C69.9273 32.5778 69.8852 32.5568 69.8431 32.5327L69.7719 32.4937C69.7298 32.4726 69.6909 32.4486 69.6489 32.4276L69.5776 32.3885C69.5356 32.3645 69.4967 32.3404 69.4546 32.3194L69.3834 32.2773C69.3413 32.2533 69.3025 32.2292 69.2636 32.2022L69.1989 32.1601C69.16 32.1361 69.1179 32.109 69.0791 32.085L69.0111 32.0399C68.9723 32.0129 68.9334 31.9889 68.8946 31.9618L68.8266 31.9137C68.791 31.8867 68.7521 31.8626 68.7165 31.8356L68.6485 31.7875C68.6129 31.7605 68.5741 31.7334 68.5385 31.7064L68.4737 31.6553C68.4381 31.6283 68.4025 31.6012 68.3701 31.5742C68.3475 31.5562 68.3248 31.5381 68.3021 31.5201C68.2665 31.493 68.2342 31.463 68.1985 31.436L68.1338 31.3819C68.0982 31.3518 68.0658 31.3248 68.0334 31.2947L67.9719 31.2406C67.9363 31.2106 67.904 31.1775 67.8683 31.1475L67.8133 31.0964C67.7777 31.0634 67.7421 31.0303 67.7097 30.9972L67.6579 30.9462C67.6255 30.9131 67.5932 30.8831 67.5608 30.85L67.5025 30.7899C67.4702 30.7569 67.4378 30.7238 67.4054 30.6877L67.3536 30.6337C67.3212 30.5976 67.2889 30.5615 67.2565 30.5255L67.2079 30.4744C67.1756 30.4383 67.1464 30.4023 67.1141 30.3662L67.0655 30.3091C67.0331 30.2701 67.0008 30.228 66.9651 30.1889L66.9295 30.1439C66.8907 30.0958 66.8551 30.0507 66.8195 30.0026L66.7968 29.9756C66.758 29.9275 66.7223 29.8764 66.6867 29.8254L66.6705 29.8013C66.5022 29.5699 66.3436 29.3296 66.2011 29.0832C66.1914 29.0651 66.1785 29.0441 66.1688 29.0261C66.1429 28.984 66.1202 28.9389 66.0943 28.8969L66.0684 28.8458C66.0425 28.8007 66.0199 28.7556 65.994 28.7076C65.9842 28.6865 65.9745 28.6655 65.9616 28.6444C65.9389 28.6024 65.9163 28.5573 65.8968 28.5152C65.8839 28.4912 65.8742 28.4672 65.8612 28.4431C65.8418 28.4041 65.8256 28.365 65.8062 28.3259C65.7932 28.2959 65.7803 28.2658 65.7673 28.2358C65.7512 28.1997 65.735 28.1637 65.7188 28.1276C65.7058 28.0976 65.6961 28.0705 65.6832 28.0405C65.667 28.0044 65.6508 27.9654 65.6378 27.9293C65.6281 27.9022 65.6152 27.8722 65.6055 27.8422C65.5893 27.8031 65.5763 27.764 65.5634 27.728C65.5537 27.7009 65.544 27.6709 65.5343 27.6438C65.5213 27.6048 65.5084 27.5657 65.4922 27.5266C65.4825 27.4966 65.4727 27.4695 65.463 27.4395C65.4501 27.4004 65.4371 27.3584 65.4242 27.3193C65.4145 27.2923 65.408 27.2622 65.3983 27.2352C65.3853 27.1961 65.3756 27.157 65.3627 27.118C65.353 27.0879 65.3465 27.0579 65.3368 27.0278C65.3271 26.9858 65.3141 26.9467 65.3044 26.9046C65.2979 26.8776 65.2915 26.8475 65.285 26.8175C65.2753 26.7784 65.2656 26.7364 65.2558 26.6973C65.2494 26.6642 65.2429 26.6312 65.2332 26.5981C65.2267 26.5591 65.217 26.523 65.2105 26.484C65.2041 26.4509 65.1976 26.4179 65.1911 26.3878C65.1846 26.3487 65.1749 26.3067 65.1684 26.2676C65.162 26.2376 65.1587 26.2075 65.1523 26.1745C65.1458 26.1324 65.1393 26.0933 65.1328 26.0513C65.1296 26.0182 65.1231 25.9852 65.1199 25.9551C65.1134 25.916 65.1102 25.874 65.1037 25.8349C65.1005 25.8019 65.0972 25.7688 65.094 25.7327C65.0907 25.6937 65.0875 25.6546 65.0843 25.6186C65.0843 25.5825 65.0778 25.5494 65.0746 25.5134C65.0746 25.4743 65.0681 25.4353 65.0681 25.3962C65.0681 25.3631 65.0648 25.3301 65.0616 25.297C65.0616 25.2399 65.0551 25.1829 65.0551 25.1258C65.0551 25.0506 65.0551 24.9785 65.0551 24.9034V24.8974L65.0454 24.9214ZM61.6786 17.6918C61.4876 17.9802 61.3096 18.2747 61.1445 18.5782V18.5872C61.0862 18.6864 61.0312 18.7855 60.9794 18.8847C60.9276 18.9868 60.8758 19.089 60.8272 19.1882V19.1972C60.7754 19.2963 60.7269 19.3985 60.6816 19.4977L60.6751 19.5097C60.6298 19.6089 60.5844 19.711 60.5423 19.8102L60.5359 19.8252C60.4938 19.9274 60.4517 20.0295 60.4096 20.1317V20.1377C60.3643 20.2429 60.3255 20.348 60.2866 20.4562C60.0891 20.9941 59.9273 21.55 59.8042 22.1149C59.7783 22.2261 59.7557 22.3403 59.733 22.4514V22.4575C59.7104 22.5686 59.6909 22.6828 59.6715 22.797V22.803C59.6327 23.0314 59.6003 23.2628 59.5744 23.4971C59.5226 23.9689 59.4967 24.4407 59.4967 24.9214C59.4967 26.7243 59.8658 28.4461 60.5359 30.0267C60.6039 30.1889 60.6718 30.3452 60.7463 30.4984C60.7625 30.5345 60.7819 30.5706 60.7981 30.6066L60.8337 30.6787C60.9244 30.865 61.0215 31.0483 61.1186 31.2316L61.1607 31.3037C61.1995 31.3759 61.2416 31.445 61.2805 31.5141L61.3193 31.5802C61.3711 31.6703 61.4261 31.7575 61.4812 31.8476L61.4974 31.8717C61.5459 31.9528 61.5977 32.0309 61.6495 32.109L61.6948 32.1782C61.7401 32.2473 61.7855 32.3134 61.8308 32.3825L61.8729 32.4426C61.9344 32.5297 61.9927 32.6139 62.0542 32.701L62.0671 32.716C62.1254 32.7942 62.1804 32.8723 62.2387 32.9474L62.2873 33.0135C62.339 33.0826 62.3941 33.1517 62.4491 33.2208L62.4815 33.2629C62.5495 33.347 62.6175 33.4282 62.6854 33.5123L62.7081 33.5364C62.7696 33.6085 62.8311 33.6776 62.8926 33.7467L62.9444 33.8068C63.0059 33.8759 63.0674 33.945 63.1322 34.0111L63.1581 34.0382C63.2325 34.1163 63.307 34.1944 63.3815 34.2725L63.4138 34.3056C63.4786 34.3717 63.5433 34.4348 63.6081 34.4979L63.6631 34.552C63.7311 34.6181 63.8023 34.6872 63.8735 34.7533L63.8929 34.7713C63.9739 34.8465 64.0548 34.9186 64.1357 34.9937L64.1681 35.0238C64.2361 35.0838 64.3073 35.147 64.3785 35.204L64.4303 35.2491C64.5954 35.3903 64.767 35.5256 64.9386 35.6578L64.9742 35.6848C65.0487 35.7419 65.1231 35.796 65.1976 35.8531L65.2494 35.8922C65.4274 36.0214 65.6055 36.1476 65.79 36.2678L65.8288 36.2948C65.9098 36.3489 65.994 36.403 66.0749 36.4541L66.1137 36.4781C66.3015 36.5953 66.4957 36.7095 66.69 36.8207L66.7321 36.8447C66.8195 36.8928 66.9036 36.9409 66.991 36.9859L67.0331 37.007C67.2338 37.1121 67.4345 37.2143 67.6385 37.3135L67.6773 37.3315C67.7745 37.3766 67.8716 37.4216 67.9687 37.4667L67.9849 37.4757C68.1953 37.5689 68.409 37.659 68.6259 37.7431L68.668 37.7582C68.7683 37.7972 68.8654 37.8363 68.9658 37.8724L68.9884 37.8814C69.2086 37.9625 69.4287 38.0376 69.6521 38.1067L69.6909 38.1188C70.0276 38.2239 70.3708 38.3171 70.7172 38.4012L70.7463 38.4072C70.9794 38.4643 71.2189 38.5124 71.4553 38.5605H71.4585C71.5718 38.5815 71.6851 38.6025 71.7984 38.6206L71.8405 38.6266C72.0801 38.6656 72.3196 38.6987 72.5624 38.7287H72.5721C72.6854 38.7438 72.802 38.7558 72.9185 38.7678H72.9574C73.2002 38.7948 73.4462 38.8129 73.6955 38.8249H73.7181C73.8347 38.8309 73.9512 38.8339 74.0645 38.8369H74.1001C74.2232 38.8399 74.3494 38.8429 74.4724 38.8429C78.0561 38.8429 81.3452 37.677 83.9253 35.7299C85.7706 34.3386 87.2533 32.5447 88.2212 30.4954C89.0143 28.8157 89.4579 26.9617 89.474 25.0116C89.474 24.9815 89.474 24.9485 89.474 24.9184V11.4176C87.4766 11.9375 85.8094 13.1995 84.8415 14.8582C84.576 14.6238 84.3008 14.3954 84.016 14.1791L83.9286 14.113C83.867 14.0679 83.8088 14.0228 83.7473 13.9778L83.7246 13.9627C83.634 13.8966 83.5433 13.8335 83.4527 13.7704H83.4462C83.3523 13.7013 83.2584 13.6382 83.1646 13.5751L83.1451 13.5631C83.0545 13.503 82.9638 13.4459 82.8732 13.3888L82.8473 13.3738C82.7534 13.3167 82.6595 13.2566 82.5657 13.2025L82.5527 13.1965C82.4556 13.1394 82.3552 13.0793 82.2549 13.0252L82.2419 13.0162C82.148 12.9621 82.0509 12.911 81.957 12.8599L81.9214 12.8419C81.8276 12.7908 81.7337 12.7428 81.6398 12.6947L81.6139 12.6827C81.5135 12.6316 81.4132 12.5835 81.3128 12.5354L81.2805 12.5204C81.1866 12.4753 81.0895 12.4303 80.9956 12.3882L80.9535 12.3702C80.8596 12.3281 80.7657 12.286 80.6686 12.247L80.6298 12.2319C80.5262 12.1869 80.4193 12.1448 80.3125 12.1027H80.3093C80.2057 12.0607 80.0988 12.0216 79.992 11.9825L79.9467 11.9675C79.8496 11.9314 79.7492 11.8954 79.6489 11.8623L79.6132 11.8503C79.5064 11.8143 79.3963 11.7782 79.2895 11.7451H79.2798C79.1697 11.7061 79.0564 11.673 78.9464 11.64L78.914 11.631C78.8104 11.6009 78.7068 11.5739 78.6032 11.5468L78.5579 11.5348C78.4511 11.5078 78.3475 11.4807 78.2406 11.4537L78.2147 11.4477C78.1014 11.4206 77.9881 11.3936 77.8748 11.3695L77.8424 11.3635C77.7356 11.3395 77.6255 11.3185 77.5155 11.2974L77.4799 11.2914C77.3698 11.2704 77.2597 11.2524 77.1529 11.2343L77.1205 11.2283C77.004 11.2103 76.8874 11.1923 76.7709 11.1742H76.7482C76.6349 11.1562 76.5216 11.1412 76.4083 11.1261H76.3727C76.2594 11.1081 76.1493 11.0961 76.036 11.0871H76.0037C75.8839 11.0721 75.7609 11.063 75.6411 11.054H75.6281C75.5084 11.045 75.3918 11.039 75.272 11.033H75.2332C75.1199 11.027 75.0033 11.021 74.89 11.018H74.8577C74.7346 11.015 74.6084 11.012 74.4854 11.012C74.3656 11.012 74.2458 11.012 74.1293 11.015H74.0872C73.9739 11.018 73.8606 11.024 73.7473 11.027H73.6955C73.5822 11.036 73.4721 11.042 73.362 11.048H73.307C73.1969 11.06 73.0836 11.0691 72.9736 11.0781H72.9282C72.8149 11.0931 72.6984 11.1051 72.5851 11.1201H72.5624C72.4459 11.1352 72.3326 11.1502 72.2193 11.1682H72.2031C72.0898 11.1862 71.9765 11.2043 71.8632 11.2223L71.8211 11.2283C71.711 11.2463 71.6042 11.2644 71.4974 11.2854L71.4488 11.2944C71.342 11.3155 71.2319 11.3365 71.1251 11.3605L71.083 11.3695C70.9761 11.3936 70.8661 11.4176 70.7592 11.4417L70.7172 11.4507C70.6071 11.4777 70.497 11.5048 70.3902 11.5318H70.3772C70.1506 11.5949 69.924 11.661 69.7007 11.7301L69.6683 11.7391C69.5614 11.7722 69.4579 11.8082 69.351 11.8413L69.3154 11.8533C69.2118 11.8894 69.1115 11.9254 69.0079 11.9615L68.9658 11.9765C68.8622 12.0156 68.7618 12.0516 68.6615 12.0937L68.6356 12.1057C68.5288 12.1478 68.4252 12.1899 68.3216 12.2349H68.3119C68.205 12.283 68.0982 12.3311 67.9914 12.3762H67.9849C67.8813 12.4242 67.7809 12.4723 67.6806 12.5204L67.6514 12.5354C67.5543 12.5835 67.454 12.6316 67.3569 12.6797L67.3277 12.6947C67.2306 12.7428 67.1367 12.7908 67.0428 12.8419L67.004 12.863C66.9101 12.914 66.813 12.9651 66.7191 13.0192L66.7029 13.0282C66.5022 13.1424 66.3047 13.2596 66.1137 13.3798L66.104 13.3858C66.0101 13.4429 65.9195 13.503 65.8288 13.5631L65.7997 13.5811C65.7123 13.6382 65.6249 13.6983 65.5375 13.7584L65.5051 13.7824C65.421 13.8425 65.3368 13.9026 65.2526 13.9627L65.2138 13.9898C65.1296 14.0529 65.0454 14.113 64.9645 14.1761L64.9386 14.1941C64.7605 14.3293 64.589 14.4706 64.4174 14.6118L64.4077 14.6208C64.3267 14.6899 64.2426 14.762 64.1616 14.8311L64.1357 14.8552C64.0581 14.9243 63.9804 14.9934 63.9059 15.0625L63.8703 15.0956C63.7958 15.1647 63.7214 15.2338 63.6502 15.3059L63.6178 15.339C63.5433 15.4111 63.4721 15.4832 63.4009 15.5583L63.3782 15.5823C63.3038 15.6575 63.2325 15.7326 63.1613 15.8107H63.1581V15.8167C62.611 16.4027 62.1157 17.0307 61.6786 17.6978V17.6918Z" fill="white"/>
</g>
<path d="M17.8864 76.1591C17.697 75.5455 17.4356 74.9962 17.1023 74.5114C16.7765 74.0189 16.3826 73.5985 15.9205 73.25C15.4659 72.9015 14.9432 72.6402 14.3523 72.4659C13.7614 72.2841 13.1174 72.1932 12.4205 72.1932C11.1705 72.1932 10.0568 72.5076 9.07955 73.1364C8.10227 73.7652 7.33333 74.6894 6.77273 75.9091C6.2197 77.1212 5.94318 78.5985 5.94318 80.3409C5.94318 82.0985 6.2197 83.5871 6.77273 84.8068C7.32576 86.0265 8.0947 86.9545 9.07955 87.5909C10.0644 88.2197 11.2083 88.5341 12.5114 88.5341C13.6932 88.5341 14.7159 88.3068 15.5795 87.8523C16.4508 87.3977 17.1212 86.7538 17.5909 85.9205C18.0606 85.0795 18.2955 84.0947 18.2955 82.9659L19.25 83.1136H12.9318V79.8182H22.375V82.6136C22.375 84.6061 21.9508 86.3295 21.1023 87.7841C20.2538 89.2386 19.0871 90.3598 17.6023 91.1477C16.1174 91.928 14.4129 92.3182 12.4886 92.3182C10.3447 92.3182 8.46212 91.8371 6.84091 90.875C5.22727 89.9053 3.96591 88.5303 3.05682 86.75C2.1553 84.9621 1.70455 82.8409 1.70455 80.3864C1.70455 78.5076 1.9697 76.8295 2.5 75.3523C3.03788 73.875 3.78788 72.6212 4.75 71.5909C5.71212 70.553 6.84091 69.7652 8.13636 69.2273C9.43182 68.6818 10.8409 68.4091 12.3636 68.4091C13.6515 68.4091 14.8523 68.5985 15.9659 68.9773C17.0795 69.3485 18.0682 69.8788 18.9318 70.5682C19.803 71.2576 20.5189 72.0758 21.0795 73.0227C21.6402 73.9697 22.0076 75.0152 22.1818 76.1591H17.8864ZM28.8267 98.5455C28.2661 98.5455 27.7472 98.5 27.2699 98.4091C26.8002 98.3258 26.4252 98.2273 26.1449 98.1136L27.0994 94.9091C27.6979 95.0833 28.232 95.1667 28.7017 95.1591C29.1714 95.1515 29.5843 95.0038 29.9403 94.7159C30.304 94.4356 30.6108 93.9659 30.8608 93.3068L31.2131 92.3636L24.8835 74.5455H29.2472L33.2699 87.7273H33.4517L37.4858 74.5455H41.8608L34.8722 94.1136C34.5464 95.0379 34.1146 95.8295 33.5767 96.4886C33.0388 97.1553 32.3797 97.6629 31.5994 98.0114C30.8267 98.3674 29.9025 98.5455 28.8267 98.5455ZM49.2301 92.3523C48.1241 92.3523 47.1278 92.1553 46.2415 91.7614C45.3627 91.3598 44.6657 90.7689 44.1506 89.9886C43.643 89.2083 43.3892 88.2462 43.3892 87.1023C43.3892 86.1174 43.571 85.303 43.9347 84.6591C44.2983 84.0152 44.7945 83.5 45.4233 83.1136C46.0521 82.7273 46.7604 82.4356 47.5483 82.2386C48.3438 82.0341 49.1657 81.8864 50.0142 81.7955C51.0369 81.6894 51.8665 81.5947 52.5028 81.5114C53.1392 81.4205 53.6013 81.2841 53.8892 81.1023C54.1847 80.9129 54.3324 80.6212 54.3324 80.2273V80.1591C54.3324 79.303 54.0786 78.6402 53.571 78.1705C53.0634 77.7008 52.3324 77.4659 51.3778 77.4659C50.3703 77.4659 49.571 77.6856 48.9801 78.125C48.3968 78.5644 48.0028 79.0833 47.7983 79.6818L43.9574 79.1364C44.2604 78.0758 44.7604 77.1894 45.4574 76.4773C46.1544 75.7576 47.0066 75.2197 48.0142 74.8636C49.0218 74.5 50.1354 74.3182 51.3551 74.3182C52.196 74.3182 53.0331 74.4167 53.8665 74.6136C54.6998 74.8106 55.4612 75.1364 56.1506 75.5909C56.84 76.0379 57.393 76.6477 57.8097 77.4205C58.2339 78.1932 58.446 79.1591 58.446 80.3182V92H54.4915V89.6023H54.3551C54.1051 90.0871 53.7528 90.5417 53.2983 90.9659C52.8513 91.3826 52.2869 91.7197 51.6051 91.9773C50.9309 92.2273 50.1392 92.3523 49.2301 92.3523ZM50.2983 89.3295C51.1241 89.3295 51.84 89.1667 52.446 88.8409C53.0521 88.5076 53.518 88.0682 53.8438 87.5227C54.1771 86.9773 54.3438 86.3826 54.3438 85.7386V83.6818C54.215 83.7879 53.9953 83.8864 53.6847 83.9773C53.3816 84.0682 53.0407 84.1477 52.6619 84.2159C52.2831 84.2841 51.9081 84.3447 51.5369 84.3977C51.1657 84.4508 50.8438 84.4962 50.571 84.5341C49.9574 84.6174 49.4081 84.7538 48.9233 84.9432C48.4384 85.1326 48.0559 85.3977 47.7756 85.7386C47.4953 86.072 47.3551 86.5038 47.3551 87.0341C47.3551 87.7917 47.6316 88.3636 48.1847 88.75C48.7377 89.1364 49.4422 89.3295 50.2983 89.3295ZM66.696 81.7727V92H62.5824V74.5455H66.5142V77.5114H66.7188C67.1203 76.5341 67.7604 75.7576 68.6392 75.1818C69.5256 74.6061 70.6203 74.3182 71.9233 74.3182C73.1278 74.3182 74.1771 74.5758 75.071 75.0909C75.9725 75.6061 76.6695 76.3523 77.1619 77.3295C77.6619 78.3068 77.9081 79.4924 77.9006 80.8864V92H73.7869V81.5227C73.7869 80.3561 73.4839 79.4432 72.8778 78.7841C72.2794 78.125 71.4498 77.7955 70.3892 77.7955C69.6695 77.7955 69.0294 77.9545 68.4688 78.2727C67.9157 78.5833 67.4801 79.0341 67.1619 79.625C66.8513 80.2159 66.696 80.9318 66.696 81.7727ZM95.8778 79.1591L92.1278 79.5682C92.0218 79.1894 91.8362 78.8333 91.571 78.5C91.3134 78.1667 90.965 77.8977 90.5256 77.6932C90.0862 77.4886 89.5483 77.3864 88.9119 77.3864C88.0559 77.3864 87.3362 77.572 86.7528 77.9432C86.1771 78.3144 85.893 78.7955 85.9006 79.3864C85.893 79.8939 86.0786 80.3068 86.4574 80.625C86.8438 80.9432 87.4801 81.2045 88.3665 81.4091L91.3438 82.0455C92.9953 82.4015 94.2225 82.9659 95.0256 83.7386C95.8362 84.5114 96.2453 85.5227 96.2528 86.7727C96.2453 87.8712 95.9233 88.8409 95.2869 89.6818C94.6581 90.5152 93.7831 91.1667 92.6619 91.6364C91.5407 92.1061 90.2528 92.3409 88.7983 92.3409C86.6619 92.3409 84.9422 91.8939 83.6392 91C82.3362 90.0985 81.5597 88.8447 81.3097 87.2386L85.321 86.8523C85.5028 87.6402 85.8892 88.2348 86.4801 88.6364C87.071 89.0379 87.84 89.2386 88.7869 89.2386C89.7642 89.2386 90.5483 89.0379 91.1392 88.6364C91.7377 88.2348 92.0369 87.7386 92.0369 87.1477C92.0369 86.6477 91.8438 86.2348 91.4574 85.9091C91.0786 85.5833 90.4877 85.3333 89.6847 85.1591L86.7074 84.5341C85.0331 84.1856 83.7945 83.5985 82.9915 82.7727C82.1884 81.9394 81.7907 80.8864 81.7983 79.6136C81.7907 78.5379 82.0824 77.6061 82.6733 76.8182C83.2718 76.0227 84.1013 75.4091 85.1619 74.9773C86.2301 74.5379 87.4612 74.3182 88.8551 74.3182C90.9006 74.3182 92.5104 74.7538 93.6847 75.625C94.8665 76.4962 95.5975 77.6742 95.8778 79.1591ZM107.372 92.3409C105.622 92.3409 104.111 91.9773 102.838 91.25C101.573 90.5152 100.599 89.4773 99.9176 88.1364C99.2358 86.7879 98.8949 85.2008 98.8949 83.375C98.8949 81.5795 99.2358 80.0038 99.9176 78.6477C100.607 77.2841 101.569 76.2235 102.804 75.4659C104.039 74.7008 105.49 74.3182 107.156 74.3182C108.232 74.3182 109.247 74.4924 110.202 74.8409C111.164 75.1818 112.012 75.7121 112.747 76.4318C113.49 77.1515 114.073 78.0682 114.497 79.1818C114.921 80.2879 115.134 81.6061 115.134 83.1364V84.3977H100.827V81.625H111.19C111.183 80.8371 111.012 80.1364 110.679 79.5227C110.346 78.9015 109.88 78.4129 109.281 78.0568C108.69 77.7008 108.001 77.5227 107.213 77.5227C106.372 77.5227 105.634 77.7273 104.997 78.1364C104.361 78.5379 103.865 79.0682 103.509 79.7273C103.16 80.3788 102.982 81.0947 102.974 81.875V84.2955C102.974 85.3106 103.16 86.1818 103.531 86.9091C103.902 87.6288 104.421 88.1818 105.088 88.5682C105.755 88.947 106.535 89.1364 107.429 89.1364C108.027 89.1364 108.569 89.053 109.054 88.8864C109.539 88.7121 109.959 88.4583 110.315 88.125C110.671 87.7917 110.94 87.3788 111.122 86.8864L114.963 87.3182C114.721 88.3333 114.259 89.2197 113.577 89.9773C112.902 90.7273 112.039 91.3106 110.986 91.7273C109.933 92.1364 108.728 92.3409 107.372 92.3409ZM127.33 74.5455V77.7273H117.295V74.5455H127.33ZM119.773 70.3636H123.886V86.75C123.886 87.303 123.97 87.7273 124.136 88.0227C124.311 88.3106 124.538 88.5076 124.818 88.6136C125.098 88.7197 125.409 88.7727 125.75 88.7727C126.008 88.7727 126.242 88.7538 126.455 88.7159C126.674 88.678 126.841 88.6439 126.955 88.6136L127.648 91.8295C127.428 91.9053 127.114 91.9886 126.705 92.0795C126.303 92.1705 125.811 92.2235 125.227 92.2386C124.197 92.2689 123.269 92.1136 122.443 91.7727C121.617 91.4242 120.962 90.8864 120.477 90.1591C120 89.4318 119.765 88.5227 119.773 87.4318V70.3636ZM141.895 84.6591V74.5455H146.009V92H142.02V88.8977H141.838C141.444 89.875 140.796 90.6742 139.895 91.2955C139.001 91.9167 137.899 92.2273 136.588 92.2273C135.444 92.2273 134.433 91.9735 133.554 91.4659C132.683 90.9508 132.001 90.2045 131.509 89.2273C131.016 88.2424 130.77 87.053 130.77 85.6591V74.5455H134.884V85.0227C134.884 86.1288 135.187 87.0076 135.793 87.6591C136.399 88.3106 137.194 88.6364 138.179 88.6364C138.785 88.6364 139.372 88.4886 139.94 88.1932C140.509 87.8977 140.974 87.4583 141.338 86.875C141.709 86.2841 141.895 85.5455 141.895 84.6591Z" fill="#1B1B1B"/>
<defs>
<clipPath id="clip0_392_5789">
<rect width="30" height="39" fill="white" transform="translate(59.5 11)"/>
</clipPath>
</defs>
</svg>
