<svg width="44" height="44" viewBox="0 0 44 44" fill="none" xmlns="http://www.w3.org/2000/svg">
<rect x="0.5" y="0.5" width="43" height="43" rx="21.5" fill="white" fill-opacity="0.12"/>
<rect x="0.5" y="0.5" width="43" height="43" rx="21.5" stroke="url(#paint0_linear_1114_11340)"/>
<path fill-rule="evenodd" clip-rule="evenodd" d="M21.167 12.2085C16.6797 12.2085 13.042 15.8462 13.042 20.3335C13.042 24.8208 16.6797 28.4585 21.167 28.4585C25.6543 28.4585 29.292 24.8208 29.292 20.3335C29.292 15.8462 25.6543 12.2085 21.167 12.2085ZM14.292 20.3335C14.292 16.5365 17.37 13.4585 21.167 13.4585C24.964 13.4585 28.042 16.5365 28.042 20.3335C28.042 24.1305 24.964 27.2085 21.167 27.2085C17.37 27.2085 14.292 24.1305 14.292 20.3335Z" fill="#BDBDBD"/>
<path d="M28.2757 26.5583C28.0316 26.3142 27.6359 26.3142 27.3918 26.5583C27.1477 26.8024 27.1477 27.1981 27.3918 27.4422L30.725 30.7755C30.9691 31.0195 31.3648 31.0195 31.6089 30.7755C31.853 30.5314 31.853 30.1357 31.6089 29.8916L28.2757 26.5583Z" fill="#BDBDBD"/>
<defs>
<linearGradient id="paint0_linear_1114_11340" x1="17.765" y1="58.7632" x2="53.1918" y2="28.2144" gradientUnits="userSpaceOnUse">
<stop stop-color="white" stop-opacity="0.64"/>
<stop offset="0.5" stop-color="white" stop-opacity="0.24"/>
<stop offset="1" stop-color="white" stop-opacity="0.64"/>
</linearGradient>
</defs>
</svg>
