<svg width="17" height="20" viewBox="0 0 17 20" fill="none" xmlns="http://www.w3.org/2000/svg">
<path fill-rule="evenodd" clip-rule="evenodd" d="M14.0227 5.39601V6.92935C15.7451 7.46696 17 9.02614 17 10.8884V15.8253C17 18.1308 15.0886 20 12.7322 20H4.2688C1.91136 20 0 18.1308 0 15.8253V10.8884C0 9.02614 1.25595 7.46696 2.97729 6.92935V5.39601C2.98745 2.41479 5.45667 0 8.48476 0C11.5535 0 14.0227 2.41479 14.0227 5.39601ZM8.50346 1.73901C10.5662 1.73901 12.2428 3.37868 12.2428 5.39598V6.71367H4.75391V5.3761C4.76407 3.36875 6.4407 1.73901 8.50346 1.73901ZM9.38762 14.4549C9.38762 14.9419 8.99132 15.3294 8.49342 15.3294C8.00567 15.3294 7.60938 14.9419 7.60938 14.4549V12.2488C7.60938 11.7718 8.00567 11.3843 8.49342 11.3843C8.99132 11.3843 9.38762 11.7718 9.38762 12.2488V14.4549Z" fill="#130F26"/>
</svg>
