<svg width="35" height="48" viewBox="0 0 35 48" fill="none" xmlns="http://www.w3.org/2000/svg">
<path fill-rule="evenodd" clip-rule="evenodd" d="M28.534 41.6501H3.91659C7.1269 45.5148 12.0217 47.9852 17.5057 47.9852C21.6866 47.9852 25.5239 46.5503 28.534 44.1538C29.4707 43.4067 30.328 42.5672 31.091 41.6501H28.534ZM6.47351 17.1193C6.47351 17.0306 6.47351 16.9418 6.47351 16.8531V16.8346C6.47351 16.7458 6.48106 16.6608 6.48484 16.5757V16.5572C6.48861 16.4721 6.49617 16.3834 6.50372 16.2983V16.2798C6.51128 16.1948 6.51883 16.1097 6.52638 16.0247V16.0025C6.53771 15.9211 6.54904 15.836 6.5566 15.7547V15.7288C6.57171 15.6474 6.58304 15.5661 6.59437 15.4847V15.4625C6.60947 15.3849 6.62458 15.3072 6.63591 15.2295L6.64347 15.1925C6.65857 15.1186 6.67368 15.0409 6.68879 14.9669L6.69634 14.9226C6.71145 14.8486 6.72656 14.7783 6.74544 14.7044L6.75677 14.6563C6.77188 14.586 6.79076 14.5121 6.80965 14.4418L6.82475 14.3863C6.84364 14.3197 6.86252 14.2532 6.88141 14.1866L6.90029 14.12C6.9154 14.0646 6.93428 14.0054 6.95317 13.9499L6.98338 13.8575C6.99849 13.8057 7.01737 13.7539 7.03248 13.7058L7.06647 13.606C7.08536 13.5542 7.10424 13.5024 7.12312 13.4507L7.16089 13.3508C7.17978 13.3027 7.19866 13.2546 7.21755 13.2103C7.23265 13.1733 7.24776 13.1326 7.26287 13.0956L7.30819 12.9847L7.36107 12.8626L7.41394 12.7443C7.4366 12.6999 7.45549 12.6518 7.47815 12.6074L7.51969 12.5224V12.5113C7.54991 12.4632 7.57257 12.4114 7.59901 12.3634V12.356L7.64433 12.2746C7.67077 12.2228 7.6972 12.171 7.72742 12.1193L7.7463 12.0823C7.78407 12.012 7.82184 11.9418 7.86339 11.8752L7.87094 11.8604C7.91248 11.7864 7.95781 11.7088 8.00313 11.6385L8.01068 11.6274C8.056 11.5497 8.1051 11.4721 8.1542 11.3944C8.67918 10.5734 9.31747 9.82634 10.0426 9.17174L10.137 9.09038L10.2315 9.00902C10.273 8.97203 10.3146 8.93505 10.3561 8.89807L10.4279 8.83889C10.4694 8.80561 10.511 8.77233 10.5525 8.73904L10.628 8.67987C10.6734 8.64289 10.7225 8.6096 10.7678 8.57262L10.8358 8.52084C10.8811 8.48756 10.9226 8.45427 10.9679 8.42469L11.0548 8.36182C11.0926 8.33593 11.1304 8.31004 11.1681 8.28045L11.2739 8.20649L11.3872 8.13252L11.5043 8.05856L11.6062 7.99199C11.6516 7.9661 11.6969 7.93651 11.7422 7.91063L11.8215 7.86625C11.8706 7.83666 11.9197 7.81077 11.9688 7.78119L12.0481 7.73681C12.0972 7.71092 12.1463 7.68133 12.1992 7.65544L12.2823 7.61106C12.3352 7.58518 12.3843 7.55929 12.4371 7.5297L12.5127 7.49272C12.5656 7.46683 12.6222 7.44094 12.6751 7.41506L12.7657 7.37068C12.8186 7.34479 12.8753 7.3189 12.9319 7.29671L13.0074 7.26343C13.0641 7.23754 13.1207 7.21535 13.1774 7.18946L13.2605 7.15618C13.3171 7.13399 13.3776 7.1081 13.438 7.08591L13.506 7.06002C13.5664 7.03783 13.6268 7.01194 13.6911 6.98975L13.7515 6.96756C13.8157 6.94537 13.8799 6.92318 13.9441 6.90099L14.0045 6.8825C14.0687 6.86031 14.1367 6.84182 14.2009 6.81963L14.2538 6.80114C14.3218 6.77895 14.3898 6.76046 14.4578 6.74197L14.5069 6.72717C14.5748 6.70868 14.6466 6.69019 14.7146 6.6717L14.7675 6.65691C14.843 6.63842 14.9185 6.61992 14.9941 6.60143L15.0318 6.59404C15.1111 6.57555 15.1905 6.56075 15.2698 6.54226L15.3075 6.53486C15.3869 6.52007 15.4624 6.50528 15.5417 6.49049L15.5795 6.48309C15.655 6.4683 15.7343 6.4572 15.8136 6.44611L15.8552 6.43871C15.9307 6.42761 16.0063 6.41652 16.0856 6.40912L16.1347 6.40173C16.2102 6.39433 16.2857 6.38324 16.3575 6.37584H16.4104C16.4859 6.36474 16.5615 6.35735 16.637 6.34995H16.6861C16.7654 6.33886 16.8447 6.33516 16.924 6.33146H16.958C17.0411 6.32406 17.1242 6.32406 17.2035 6.32036H17.2375C17.3244 6.32036 17.4112 6.31667 17.4981 6.31667H17.5132C17.8003 6.31667 18.0835 6.32776 18.363 6.34625C18.4574 6.35365 18.5481 6.36105 18.6425 6.37214C19.107 6.41652 19.5603 6.49418 20.0059 6.59404C20.0966 6.61253 20.1834 6.63472 20.2703 6.65691C20.3572 6.6791 20.4478 6.70129 20.5347 6.72717C20.7084 6.77525 20.8822 6.82703 21.0521 6.8862C21.139 6.91579 21.2221 6.94537 21.3052 6.97496C21.3883 7.00455 21.4751 7.03783 21.5582 7.06742C21.6413 7.1007 21.7244 7.13399 21.8075 7.16727C21.9737 7.23384 22.1361 7.30781 22.2947 7.38177C22.4571 7.45943 22.6157 7.5371 22.7706 7.61846C22.8499 7.65914 22.9254 7.70352 23.0047 7.7442C23.0803 7.78858 23.1596 7.83296 23.2351 7.87734C23.3107 7.92172 23.3862 7.9698 23.4617 8.01418C23.5373 8.06225 23.609 8.11033 23.6846 8.15841C23.7563 8.20649 23.8319 8.25457 23.9036 8.30634C23.9754 8.35812 24.0472 8.4062 24.1189 8.45797C24.1907 8.50975 24.2587 8.56152 24.3304 8.617C24.3984 8.66877 24.4702 8.72425 24.5381 8.77972C24.6061 8.8352 24.6741 8.89067 24.7421 8.94614C24.8101 9.00162 24.8743 9.06079 24.9385 9.11996C25.0027 9.17914 25.0669 9.23831 25.1311 9.29748C25.1953 9.35665 25.2595 9.41583 25.3199 9.4787C25.3804 9.54157 25.4446 9.60074 25.505 9.66361C25.5654 9.72648 25.6259 9.78935 25.6863 9.85222C25.7467 9.91509 25.8034 9.98166 25.86 10.0445C25.9167 10.1111 25.9733 10.1777 26.03 10.2442C26.0867 10.3108 26.1433 10.3774 26.1962 10.4476C26.2491 10.5142 26.3057 10.5845 26.3586 10.6548C26.4115 10.725 26.4643 10.7953 26.5134 10.8656C26.5663 10.9358 26.6154 11.0061 26.6645 11.0801C26.7136 11.1503 26.7627 11.2243 26.8118 11.2983C26.8609 11.3722 26.9062 11.4462 26.9515 11.5201C26.9969 11.5941 27.0422 11.6681 27.0875 11.7457C27.1328 11.8197 27.1744 11.8974 27.2159 11.975C27.2575 12.0527 27.299 12.1304 27.3406 12.208C27.3821 12.2857 27.4199 12.3634 27.4576 12.441C27.4954 12.5187 27.5332 12.6 27.5709 12.6777C27.6087 12.7591 27.6427 12.8367 27.6767 12.9181C27.7107 12.9995 27.7447 13.0808 27.7787 13.1622C27.8127 13.2435 27.8429 13.3249 27.8731 13.41C27.9033 13.4913 27.9335 13.5764 27.9637 13.6578C27.994 13.7428 28.0204 13.8242 28.0468 13.9092C28.0733 13.9943 28.0997 14.0794 28.1224 14.1644C28.1488 14.2495 28.1715 14.3345 28.1941 14.4233C28.2168 14.5084 28.2394 14.5971 28.2583 14.6822C28.2772 14.7709 28.2999 14.856 28.315 14.9448C28.3339 15.0335 28.349 15.1223 28.3679 15.211C28.383 15.2998 28.3981 15.3886 28.4132 15.4773C28.4283 15.5661 28.4396 15.6548 28.451 15.7473C28.4623 15.836 28.4736 15.9285 28.4812 16.0173C28.4887 16.1097 28.5001 16.1985 28.5076 16.2909C28.5152 16.3834 28.5189 16.4758 28.5265 16.5646C28.5303 16.6571 28.534 16.7495 28.5378 16.842C28.5378 16.9344 28.5378 17.0269 28.5378 17.1193C28.5378 17.2821 28.534 17.4448 28.5265 17.6075L28.5189 17.7407C28.5189 17.7887 28.5114 17.8368 28.5114 17.8849L28.5 18.0143C28.4963 18.0624 28.4925 18.1068 28.4887 18.1549C28.4849 18.1992 28.4812 18.2436 28.4736 18.288C28.4698 18.3324 28.4623 18.3768 28.4585 18.4211L28.4396 18.5543C28.4321 18.5987 28.4283 18.643 28.4207 18.6911C28.4132 18.7355 28.4094 18.7762 28.4019 18.8206C28.3943 18.8649 28.3867 18.913 28.3792 18.9574C28.3716 19.0018 28.3641 19.0425 28.3565 19.0831C28.349 19.1275 28.3376 19.1756 28.3301 19.22C28.3225 19.2607 28.315 19.3013 28.3037 19.342C28.2923 19.3901 28.2848 19.4345 28.2734 19.4826C28.2659 19.5232 28.2546 19.5602 28.247 19.6009C28.2357 19.649 28.2243 19.7007 28.2092 19.7488L28.1828 19.8524C28.1715 19.9005 28.1564 19.9522 28.1413 20.0003C28.1299 20.0373 28.1224 20.0743 28.111 20.1113C28.0959 20.1593 28.0808 20.2037 28.0695 20.2518C28.0582 20.2888 28.0468 20.3258 28.0355 20.3627C28.0204 20.4145 28.0015 20.4626 27.9864 20.5144L27.9562 20.6068C27.9373 20.6623 27.9184 20.7141 27.8995 20.7696C27.8882 20.7991 27.8806 20.825 27.8693 20.8546C27.8504 20.9101 27.8278 20.9619 27.8089 21.0136C27.7976 21.0432 27.7862 21.0691 27.7749 21.0987C27.7522 21.1505 27.7296 21.2023 27.7107 21.254C27.6994 21.2836 27.688 21.3095 27.6729 21.3391C27.6503 21.3909 27.6276 21.4426 27.6049 21.4944C27.5936 21.5203 27.5823 21.5499 27.5672 21.5758C27.5407 21.6386 27.5105 21.6978 27.4803 21.757L27.4576 21.8088C27.4237 21.879 27.3859 21.9493 27.3519 22.0159L27.3406 22.0381C27.3066 22.1046 27.2688 22.1712 27.231 22.2415L27.2159 22.2711C27.0044 22.652 26.7703 23.0181 26.5172 23.3694L26.4908 23.4027C26.4492 23.4619 26.4039 23.5211 26.3624 23.5765L26.3208 23.632C26.283 23.6801 26.2453 23.7319 26.2037 23.78L26.1471 23.8502C26.1093 23.8946 26.0753 23.939 26.0376 23.9834L25.9847 24.0462C25.9469 24.0906 25.9054 24.135 25.8676 24.1831L25.8109 24.2459C25.7732 24.2903 25.7316 24.3347 25.6939 24.3754L25.6297 24.4419C25.5919 24.4826 25.5541 24.5196 25.5163 24.5603C25.4937 24.5862 25.4672 24.6084 25.4446 24.6343C25.4068 24.6712 25.3728 24.7082 25.3351 24.7452L25.2671 24.8118C25.2255 24.8488 25.1878 24.8894 25.1462 24.9264C25.1236 24.9486 25.1009 24.9671 25.0782 24.9893C25.0405 25.0263 24.9989 25.0596 24.9612 25.0965C24.9347 25.1187 24.9083 25.1446 24.8818 25.1668C24.8403 25.2038 24.8025 25.2371 24.761 25.2704L24.6892 25.3295C24.6477 25.3665 24.6061 25.3998 24.5608 25.4368L24.4853 25.496C24.4437 25.5292 24.3984 25.5662 24.3531 25.5995L24.2775 25.6587C24.236 25.692 24.1944 25.7216 24.1491 25.7548L24.0623 25.8177C24.0207 25.8473 23.9792 25.8769 23.9376 25.9065L23.8508 25.9656C23.8054 25.9952 23.7639 26.0248 23.7186 26.0544L23.6393 26.1062C23.5939 26.1358 23.5486 26.1653 23.4995 26.1949L23.4126 26.2467C23.3673 26.2763 23.322 26.3022 23.2767 26.3281L23.186 26.3798C23.1407 26.4057 23.0954 26.4316 23.0501 26.4575L22.9594 26.5093C22.9141 26.5352 22.8688 26.5611 22.8197 26.587L22.7253 26.635C22.6799 26.6572 22.6346 26.6831 22.5893 26.7053L22.4911 26.7534C22.4458 26.7756 22.3967 26.7978 22.3513 26.8199L22.2532 26.8643C22.2078 26.8865 22.1587 26.9087 22.1134 26.9272L22.0152 26.9716C21.9661 26.9938 21.917 27.016 21.8679 27.0344L21.7773 27.0714C21.7244 27.0936 21.6753 27.1121 21.6224 27.1343L21.528 27.1713C21.4751 27.1898 21.4222 27.212 21.3694 27.2305L21.2825 27.2637C21.2259 27.2822 21.1692 27.3044 21.1125 27.3229L21.0332 27.3488C20.9766 27.3673 20.9199 27.3858 20.8633 27.4043L20.7764 27.4302C20.7235 27.445 20.6669 27.4634 20.6102 27.4782C20.58 27.4856 20.546 27.4967 20.5158 27.5041C20.4592 27.5189 20.4025 27.5337 20.3421 27.5485L20.2552 27.5707C20.1986 27.5855 20.1457 27.5966 20.089 27.6114C20.055 27.6188 20.021 27.6262 19.987 27.6336C19.9266 27.6484 19.87 27.6595 19.8095 27.6705L19.7264 27.689C19.6622 27.7001 19.6018 27.7112 19.5376 27.726L19.4583 27.7408C19.3941 27.7519 19.3299 27.763 19.2657 27.7704C19.2392 27.7741 19.2128 27.7778 19.1864 27.7815C19.1184 27.7926 19.0504 27.8 18.9824 27.8111L18.9144 27.8185C18.8389 27.8296 18.7634 27.837 18.6878 27.8444H18.6425C18.5632 27.8555 18.4801 27.8629 18.397 27.8703H18.363C18.0835 27.8924 17.8003 27.9035 17.517 27.9035C17.2337 27.9035 16.9505 27.8924 16.671 27.8703H16.6445C16.5615 27.8629 16.4746 27.8555 16.3915 27.8481H16.3537C16.2744 27.837 16.1951 27.8259 16.1158 27.8185L16.0591 27.8111C15.9874 27.8037 15.9156 27.7926 15.8439 27.7815L15.7759 27.7704C15.7079 27.7593 15.6437 27.7482 15.5757 27.7371L15.5039 27.7223C15.4397 27.7112 15.3717 27.6964 15.3075 27.6853L15.232 27.6705C15.1716 27.6595 15.1074 27.6447 15.0469 27.6299C15.0167 27.6225 14.9865 27.6151 14.9563 27.6077C14.8996 27.5929 14.8392 27.5818 14.7826 27.567L14.7032 27.5448C14.6428 27.53 14.5824 27.5152 14.522 27.4967L14.4389 27.4745C14.3784 27.456 14.3218 27.4413 14.2651 27.4228L14.1858 27.3969C14.1254 27.3784 14.065 27.3599 14.0083 27.3414L13.9328 27.3155C13.8723 27.297 13.8157 27.2748 13.759 27.2563L13.6759 27.2268C13.6193 27.2083 13.5664 27.1861 13.5098 27.1639L13.4229 27.1306C13.37 27.1084 13.3134 27.0862 13.2605 27.064L13.1774 27.0307C13.1245 27.0086 13.0716 26.9864 13.0188 26.9642L12.9281 26.9235C12.879 26.9013 12.8299 26.8791 12.7771 26.8532L12.6864 26.8088C12.6373 26.7867 12.5882 26.7608 12.5391 26.7349L12.4522 26.6905C12.4031 26.6646 12.354 26.6387 12.305 26.6128L12.2181 26.5685C12.169 26.5426 12.1199 26.5167 12.0708 26.4871L11.9877 26.439C11.9386 26.4131 11.8933 26.3835 11.8442 26.3577L11.7611 26.3096C11.712 26.28 11.6667 26.2504 11.6176 26.2245L11.5345 26.1727C11.4854 26.1432 11.4401 26.1136 11.3947 26.0803L11.3192 26.0285C11.2739 25.9989 11.2248 25.9656 11.1795 25.9361L11.1001 25.8806C11.0548 25.8473 11.0095 25.8177 10.9642 25.7844L10.8849 25.7253C10.8433 25.692 10.798 25.6624 10.7564 25.6291L10.6771 25.5699C10.6356 25.5366 10.5903 25.5034 10.5487 25.4701L10.4732 25.4072C10.4316 25.3739 10.3901 25.3406 10.3523 25.3073C10.3259 25.2852 10.2994 25.263 10.273 25.2408C10.2315 25.2075 10.1937 25.1705 10.1522 25.1372L10.0766 25.0707C10.0351 25.0337 9.9973 25.0004 9.95953 24.9634L9.88777 24.8968C9.84623 24.8599 9.80846 24.8192 9.76691 24.7822L9.70271 24.7193C9.66116 24.6786 9.61962 24.638 9.58185 24.5973L9.52142 24.5344C9.48365 24.4937 9.44588 24.4567 9.40811 24.4161L9.34013 24.3421C9.30236 24.3014 9.26459 24.2607 9.22683 24.2164L9.1664 24.1498C9.12863 24.1054 9.09086 24.061 9.05309 24.0166L8.99644 23.9538C8.95867 23.9094 8.92468 23.865 8.88691 23.8206L8.83026 23.7504C8.79249 23.7023 8.75472 23.6505 8.71317 23.6024L8.67163 23.547C8.62631 23.4878 8.58476 23.4323 8.54322 23.3731L8.51678 23.3399C8.47146 23.2807 8.42991 23.2178 8.38837 23.1549L8.36948 23.1254C8.17309 22.8406 7.98802 22.5447 7.82184 22.2415C7.81051 22.2193 7.7954 22.1934 7.78407 22.1712C7.75386 22.1194 7.72742 22.064 7.6972 22.0122L7.66699 21.9493C7.63678 21.8938 7.61034 21.8384 7.58012 21.7792C7.56879 21.7533 7.55746 21.7274 7.54235 21.7015C7.51592 21.6497 7.48948 21.5943 7.46682 21.5425C7.45171 21.5129 7.44038 21.4833 7.42527 21.4537C7.40261 21.4057 7.38373 21.3576 7.36107 21.3095C7.34596 21.2725 7.33085 21.2355 7.31574 21.1986C7.29686 21.1542 7.27797 21.1098 7.25909 21.0654C7.24398 21.0284 7.23265 20.9951 7.21755 20.9582C7.19866 20.9138 7.17978 20.8657 7.16467 20.8213C7.15334 20.788 7.13823 20.7511 7.1269 20.7141C7.10802 20.666 7.09291 20.6179 7.0778 20.5735C7.06647 20.5403 7.05514 20.5033 7.04381 20.47C7.0287 20.4219 7.0136 20.3738 6.99471 20.3258C6.98338 20.2888 6.97205 20.2555 6.96072 20.2185C6.94561 20.1704 6.9305 20.1187 6.9154 20.0706C6.90407 20.0373 6.89651 20.0003 6.88518 19.967C6.87008 19.9189 6.85875 19.8709 6.84364 19.8228C6.83231 19.7858 6.82475 19.7488 6.81342 19.7118C6.80209 19.6601 6.78699 19.612 6.77565 19.5602C6.7681 19.5269 6.76055 19.4899 6.75299 19.453C6.74166 19.4049 6.73033 19.3531 6.719 19.305C6.71145 19.2644 6.70389 19.2237 6.69256 19.183C6.68501 19.1349 6.67368 19.0905 6.66613 19.0425C6.65857 19.0018 6.65102 18.9611 6.64347 18.9241C6.63591 18.876 6.62458 18.8243 6.61703 18.7762C6.60947 18.7392 6.6057 18.7022 6.59814 18.6615C6.59059 18.6098 6.58304 18.5617 6.57548 18.5099C6.57171 18.4692 6.56415 18.4285 6.56037 18.3916C6.55282 18.3435 6.54904 18.2917 6.54149 18.2436C6.53771 18.2029 6.53394 18.1623 6.53016 18.1179C6.52638 18.0698 6.52261 18.0217 6.51883 17.9774C6.51883 17.933 6.51128 17.8923 6.5075 17.8479C6.5075 17.7998 6.49995 17.7518 6.49995 17.7037C6.49995 17.663 6.49617 17.6223 6.49239 17.5816C6.49239 17.5114 6.48484 17.4411 6.48484 17.3708C6.48484 17.2784 6.48484 17.1896 6.48484 17.0972V17.0898L6.47351 17.1193ZM2.54559 8.22128C2.32276 8.57632 2.11503 8.93875 1.92241 9.31227V9.32337C1.85443 9.44541 1.79022 9.56746 1.72979 9.6895C1.66936 9.81524 1.60893 9.94098 1.55228 10.063V10.0741C1.49185 10.1962 1.4352 10.3219 1.38232 10.4439L1.37477 10.4587C1.32189 10.5808 1.26902 10.7065 1.21992 10.8286L1.21237 10.8471C1.16327 10.9728 1.11417 11.0985 1.06507 11.2243V11.2317C1.01219 11.3611 0.966872 11.4906 0.921549 11.6237C0.691162 12.2857 0.50232 12.9699 0.3588 13.6652C0.328585 13.802 0.302147 13.9425 0.275709 14.0794V14.0868C0.249272 14.2236 0.226611 14.3641 0.203949 14.5047V14.5121C0.158627 14.7931 0.120859 15.0779 0.0906442 15.3664C0.0302147 15.947 0 16.5276 0 17.1193C0 19.3383 0.43056 21.4574 1.21237 23.4027C1.29168 23.6024 1.37099 23.7947 1.45786 23.9834C1.47675 24.0277 1.49941 24.0721 1.51829 24.1165L1.55984 24.2053C1.66559 24.4345 1.77889 24.6601 1.8922 24.8857L1.9413 24.9745C1.98662 25.0633 2.03572 25.1483 2.08104 25.2334L2.12636 25.3147C2.18679 25.4257 2.251 25.5329 2.3152 25.6439L2.33409 25.6735C2.39074 25.7733 2.45117 25.8695 2.5116 25.9656L2.56448 26.0507C2.61735 26.1358 2.67023 26.2171 2.7231 26.3022L2.7722 26.3761C2.84396 26.4834 2.91195 26.587 2.98371 26.6942L2.99881 26.7127C3.0668 26.8088 3.131 26.905 3.19899 26.9975L3.25564 27.0788C3.31607 27.1639 3.38027 27.2489 3.44448 27.334L3.48225 27.3858C3.56156 27.4893 3.64088 27.5892 3.72019 27.6927L3.74663 27.7223C3.81839 27.8111 3.89015 27.8961 3.96191 27.9812L4.02234 28.0552C4.0941 28.1402 4.16586 28.2253 4.24139 28.3067L4.27161 28.3399C4.35848 28.4361 4.44534 28.5322 4.53221 28.6284L4.56998 28.6691C4.64552 28.7504 4.72105 28.8281 4.79659 28.9058L4.8608 28.9723C4.94011 29.0537 5.0232 29.1388 5.10629 29.2201L5.12895 29.2423C5.22337 29.3348 5.31779 29.4235 5.41221 29.516L5.44998 29.553C5.5293 29.6269 5.61239 29.7046 5.69548 29.7749L5.75591 29.8303C5.94853 30.0042 6.1487 30.1706 6.34887 30.3333L6.39042 30.3666C6.47728 30.4369 6.56415 30.5034 6.65102 30.5737L6.71145 30.6218C6.91917 30.7808 7.1269 30.9361 7.34218 31.0841L7.3875 31.1173C7.48192 31.1839 7.58012 31.2505 7.67454 31.3134L7.71987 31.3429C7.93892 31.4872 8.16553 31.6277 8.39214 31.7645L8.44124 31.7941C8.54322 31.8533 8.64141 31.9125 8.74339 31.968L8.79249 31.9938C9.02665 32.1233 9.26082 32.249 9.49876 32.3711L9.54408 32.3933C9.65739 32.4487 9.77069 32.5042 9.884 32.5597L9.90288 32.5708C10.1484 32.6854 10.3976 32.7964 10.6507 32.8999L10.6998 32.9184C10.8169 32.9665 10.9302 33.0146 11.0473 33.0589L11.0737 33.07C11.3305 33.1699 11.5874 33.2623 11.848 33.3474L11.8933 33.3622C12.2861 33.4916 12.6864 33.6063 13.0905 33.7098L13.1245 33.7172C13.3965 33.7875 13.6759 33.8467 13.9517 33.9059H13.9554C14.0876 33.9317 14.2198 33.9576 14.352 33.9798L14.4011 33.9872C14.6806 34.0353 14.9601 34.076 15.2433 34.113H15.2547C15.3869 34.1314 15.5228 34.1462 15.6588 34.161H15.7041C15.9874 34.1943 16.2744 34.2165 16.5652 34.2313H16.5917C16.7276 34.2387 16.8636 34.2424 16.9958 34.2461H17.0373C17.1809 34.2498 17.3282 34.2535 17.4717 34.2535C21.6526 34.2535 25.4899 32.8186 28.5 30.4221C30.6528 28.7098 32.3826 26.5019 33.5119 23.9797C34.4372 21.9123 34.9547 19.6305 34.9736 17.2303C34.9736 17.1933 34.9736 17.1526 34.9736 17.1156V0.499268C32.6432 1.13907 30.6982 2.69235 29.5689 4.7338C29.2592 4.44534 28.9382 4.16427 28.6058 3.89799L28.5038 3.81663C28.4321 3.76115 28.3641 3.70568 28.2923 3.6502L28.2659 3.63171C28.1601 3.55035 28.0544 3.47269 27.9486 3.39502H27.9411C27.8316 3.30996 27.722 3.2323 27.6125 3.15463L27.5898 3.13984C27.4841 3.06588 27.3783 2.99561 27.2726 2.92534L27.2424 2.90685C27.1328 2.83658 27.0233 2.76262 26.9138 2.69605L26.8987 2.68865C26.7854 2.61838 26.6683 2.54442 26.5512 2.47785L26.5361 2.46675C26.4266 2.40019 26.3133 2.33731 26.2037 2.27444L26.1622 2.25225C26.0527 2.18938 25.9431 2.13021 25.8336 2.07104L25.8034 2.05624C25.6863 1.99337 25.5692 1.9342 25.4521 1.87503L25.4144 1.85654C25.3048 1.80106 25.1915 1.74559 25.082 1.69381L25.0329 1.67162C24.9234 1.61985 24.8139 1.56807 24.7005 1.51999L24.6552 1.5015C24.5344 1.44603 24.4097 1.39425 24.2851 1.34248H24.2813C24.1605 1.2907 24.0358 1.24262 23.9112 1.19455L23.8583 1.17605C23.745 1.13167 23.6279 1.08729 23.5108 1.04661L23.4693 1.03182C23.3447 0.987441 23.2162 0.943062 23.0916 0.902381H23.0803C22.9519 0.854303 22.8197 0.813622 22.6913 0.772941L22.6535 0.761846C22.5326 0.724863 22.4118 0.691579 22.2909 0.658294L22.238 0.643501C22.1134 0.610217 21.9926 0.576932 21.8679 0.543648L21.8377 0.536251C21.7055 0.502966 21.5733 0.469682 21.4411 0.440096L21.4034 0.432699C21.2787 0.403113 21.1503 0.377225 21.0219 0.351337L20.9804 0.34394C20.8519 0.318052 20.7235 0.295863 20.5989 0.273673L20.5611 0.266276C20.4252 0.244087 20.2892 0.221897 20.1532 0.199707H20.1268C19.9946 0.177518 19.8624 0.159026 19.7302 0.140535H19.6887C19.5565 0.118345 19.4281 0.103552 19.2959 0.0924571H19.2581C19.1184 0.0739656 18.9749 0.0628708 18.8351 0.051776H18.82C18.6803 0.0406811 18.5443 0.0332845 18.4046 0.025888H18.3592C18.227 0.0184914 18.0911 0.0110948 17.9589 0.00739656H17.9211C17.7776 0.00369828 17.6303 0 17.4868 0C17.347 0 17.2073 6.88859e-10 17.0713 0.00369828H17.0222C16.89 0.00739657 16.7578 0.0147931 16.6257 0.0184914H16.5652C16.433 0.0295863 16.3046 0.0369828 16.1762 0.0443794H16.112C15.9836 0.0591725 15.8514 0.0702674 15.723 0.0813622H15.6701C15.5379 0.0998536 15.402 0.114647 15.2698 0.133138H15.2433C15.1074 0.15163 14.9752 0.170121 14.843 0.192311H14.8241C14.6919 0.2145 14.5597 0.23669 14.4275 0.25888L14.3784 0.266276C14.25 0.288466 14.1254 0.310656 14.0008 0.336544L13.9441 0.347639C13.8195 0.373527 13.6911 0.399415 13.5664 0.429001L13.5173 0.440096C13.3927 0.469682 13.2643 0.499268 13.1396 0.528854L13.0905 0.539949C12.9621 0.573234 12.8337 0.606518 12.7091 0.639803H12.694C12.4296 0.717467 12.1652 0.798829 11.9046 0.883889L11.8668 0.894984C11.7422 0.935665 11.6213 0.980045 11.4967 1.02073L11.4552 1.03552C11.3343 1.0799 11.2172 1.12428 11.0964 1.16866L11.0473 1.18715C10.9264 1.23523 10.8093 1.27961 10.6922 1.33138L10.662 1.34617C10.5374 1.39795 10.4165 1.44973 10.2957 1.5052H10.2843C10.1597 1.56437 10.0351 1.62355 9.91043 1.67902H9.90288C9.78202 1.73819 9.66494 1.79737 9.54786 1.85654L9.51387 1.87503C9.40056 1.9342 9.28348 1.99337 9.17017 2.05255L9.13618 2.07104C9.02288 2.13021 8.91335 2.18938 8.80382 2.25225L8.7585 2.27814C8.64897 2.34101 8.53566 2.40388 8.42613 2.47045L8.40725 2.48155C8.17309 2.62208 7.9427 2.76632 7.71987 2.91425L7.70853 2.92164C7.59901 2.99191 7.49325 3.06588 7.3875 3.13984L7.35351 3.16203C7.25154 3.2323 7.14956 3.30626 7.04759 3.38023L7.00982 3.40982C6.91162 3.48378 6.81342 3.55775 6.71523 3.63171L6.6699 3.665C6.57171 3.74266 6.47351 3.81663 6.37909 3.89429L6.34887 3.91648C6.14114 4.0829 5.94097 4.25672 5.7408 4.43054L5.72947 4.44164C5.63505 4.5267 5.53685 4.61546 5.44243 4.70052L5.41221 4.7301C5.32157 4.81516 5.23093 4.90022 5.14406 4.98528L5.10251 5.02597C5.01565 5.11103 4.92878 5.19609 4.84569 5.28485L4.80792 5.32553C4.72105 5.41429 4.63796 5.50304 4.55487 5.5955L4.52843 5.62509C4.44157 5.71754 4.35848 5.81 4.27539 5.90616H4.27161V5.91355C3.63332 6.63472 3.05547 7.40766 2.54559 8.22868V8.22128Z" fill="url(#paint0_linear_713_3982)"/>
<defs>
<linearGradient id="paint0_linear_713_3982" x1="17.4868" y1="0" x2="17.4868" y2="47.9852" gradientUnits="userSpaceOnUse">
<stop stop-color="#548ADB"/>
<stop offset="1" stop-color="#9943EC"/>
</linearGradient>
</defs>
</svg>
