<svg width="21" height="25" viewBox="0 0 21 25" fill="none" xmlns="http://www.w3.org/2000/svg">
<path fill-rule="evenodd" clip-rule="evenodd" d="M18.8795 8.56392C18.8795 10.0489 19.272 10.9241 20.1357 11.9327C20.7902 12.6758 20.9994 13.6297 20.9994 14.6645C20.9994 15.6981 20.6598 16.6794 19.9794 17.476C19.0887 18.4311 17.8325 19.0408 16.5505 19.1467C14.6927 19.3051 12.8337 19.4385 10.95 19.4385C9.06514 19.4385 7.20732 19.3587 5.3495 19.1467C4.06629 19.0408 2.81012 18.4311 1.92057 17.476C1.24019 16.6794 0.899414 15.6981 0.899414 14.6645C0.899414 13.6297 1.10976 12.6758 1.76311 11.9327C2.65383 10.9241 3.02046 10.0489 3.02046 8.56392V8.0602C3.02046 6.07153 3.51635 4.77115 4.53751 3.49817C6.05573 1.64168 8.48935 0.528259 10.8971 0.528259H11.0029C13.4623 0.528259 15.9747 1.69526 17.4671 3.63154C18.4353 4.87833 18.8795 6.12392 18.8795 8.0602V8.56392ZM7.48929 21.8825C7.48929 21.2871 8.03571 21.0144 8.541 20.8977C9.13207 20.7727 12.7337 20.7727 13.3248 20.8977C13.8301 21.0144 14.3765 21.2871 14.3765 21.8825C14.3471 22.4494 14.0146 22.9519 13.5551 23.271C12.9594 23.7355 12.2602 24.0296 11.5293 24.1356C11.125 24.188 10.7278 24.1892 10.3377 24.1356C9.60563 24.0296 8.90645 23.7355 8.31185 23.2698C7.85122 22.9519 7.51866 22.4494 7.48929 21.8825Z" fill="#495057"/>
</svg>
