<svg height="512" viewBox="0 0 128 128" width="512" xmlns="http://www.w3.org/2000/svg"><path d="m26.416 65.551a2 2 0 0 0 0 2.829 7.824 7.824 0 0 0 11.062 0 2 2 0 1 0 -2.828-2.829 3.914 3.914 0 0 1 -5.406 0 2 2 0 0 0 -2.828 0z"/><path d="m34.266 26.625v-1.554h1.553a2 2 0 0 0 0-4h-1.553v-1.553a2 2 0 0 0 -4 0v1.553h-1.553a2 2 0 0 0 0 4h1.553v1.554a2 2 0 0 0 4 0z"/><path d="m118.642 103.213h-1.859v-27.132a7.822 7.822 0 0 0 6.917-13.232l-33.737-33.738a7.815 7.815 0 0 0 -11.072 0l-22.819 22.819v-3.959a24.1 24.1 0 0 0 -3.494-12.514v-15.173a8.3 8.3 0 0 0 -5.849-7.958 49.793 49.793 0 0 0 -29.564 0 8.3 8.3 0 0 0 -5.849 7.958v15.172a24.1 24.1 0 0 0 -3.494 12.515v30.535a2 2 0 0 0 2 2h13.138v3.612h-8.48a12.494 12.494 0 0 0 -12.48 12.482v13.95a7.389 7.389 0 0 0 7.381 7.381h109.261a7.358 7.358 0 0 0 0-14.716zm-5.859 0h-50.889v-6.613a12.473 12.473 0 0 0 -5.822-10.54v-11.991l28.356-28.356 28.205 28.206c.048.049.1.089.15.136zm-95.138-15.095h5.555a9.016 9.016 0 0 0 5.2 6.243l-3.44 3.439-7.315-7.316zm-5.823-32.089a25.232 25.232 0 0 0 17.616-9.207l2.509-3.068 2.51 3.068a25.228 25.228 0 0 0 17.615 9.207v1.771a20.125 20.125 0 0 1 -40.25 0zm0-8.058a20.11 20.11 0 0 1 2.826-10.295 55.579 55.579 0 0 1 34.6 0 20.11 20.11 0 0 1 2.826 10.295v4.046a21.252 21.252 0 0 1 -14.52-7.728l-4.059-4.959a2 2 0 0 0 -3.1 0l-4.057 4.959a21.252 21.252 0 0 1 -14.52 7.728zm40.25 24.266v4.269h-4.906a24.332 24.332 0 0 0 4.906-5.418zm-20.125 9.692a24.107 24.107 0 0 0 4.987-.521v4.7a4.987 4.987 0 0 1 -9.974 0v-4.7a24.114 24.114 0 0 0 4.987.521zm8.753 6.189h5.55v2.368l-7.316 7.314-3.442-3.441a9.016 9.016 0 0 0 5.208-6.241zm8.716-4h-8.48v-3.612h11.136v3.9a12.455 12.455 0 0 0 -2.658-.288zm32.3-52.179a3.91 3.91 0 0 1 5.416 0l33.738 33.738a3.828 3.828 0 0 1 -5.412 5.414l-29.616-29.621a2.058 2.058 0 0 0 -2.828 0l-26.942 26.943v-10.827zm-66.4-11.656a4.317 4.317 0 0 1 3.042-4.139 45.774 45.774 0 0 1 27.178 0 4.316 4.316 0 0 1 3.042 4.14v12.986a59.682 59.682 0 0 0 -33.262 0zm-3.494 50.8a24.357 24.357 0 0 0 4.906 5.418h-4.906zm-5.822 39.465v-13.948a8.491 8.491 0 0 1 7.645-8.438v3.155a2 2 0 0 0 .585 1.414l9.316 9.315a2 2 0 0 0 2.829 0l3.572-3.572v15.457h-20.566a3.385 3.385 0 0 1 -3.381-3.383zm27.947 3.381v-15.457l3.573 3.572a2 2 0 0 0 2.828 0l9.316-9.315a2 2 0 0 0 .586-1.414v-3.155a8.491 8.491 0 0 1 7.644 8.44v13.95a3.385 3.385 0 0 1 -3.381 3.381zm84.7 0h-57.58a7.331 7.331 0 0 0 .827-3.381v-3.335h56.748a3.358 3.358 0 0 1 0 6.716z"/><path d="m84.427 63.508a16.427 16.427 0 1 0 16.884 16.421 16.676 16.676 0 0 0 -16.884-16.421zm0 28.842a12.429 12.429 0 1 1 12.884-12.421 12.661 12.661 0 0 1 -12.884 12.421z"/><path d="m89.052 78.661h-2.625v-2.625a2 2 0 0 0 -4 0v2.625h-2.627a2 2 0 0 0 0 4h2.624v2.624a2 2 0 0 0 4 0v-2.624h2.625a2 2 0 1 0 0-4z"/><path d="m26.8 60.018a2 2 0 0 0 2-2v-1.556a2 2 0 0 0 -4 0v1.556a2 2 0 0 0 2 2z"/><path d="m37.094 60.018a2 2 0 0 0 2-2v-1.556a2 2 0 0 0 -4 0v1.556a2 2 0 0 0 2 2z"/></svg>