<svg xmlns="http://www.w3.org/2000/svg" enable-background="new 0 0 100 100" viewBox="0 0 100 100" id="patient"><path d="M86.11,13.89H37.688v5.63h1.126h1.126v-3.378h43.918v63.061H60.53l-0.254-1.75c-0.552-3.691-5.223-5.984-8.443-6.069l-8.68-2.76v-1.206c2.723-2.033,4.528-5.531,4.528-9.505c0-5.834-3.885-10.651-8.867-11.29c-0.37-0.047-0.745-0.077-1.126-0.077c-5.51,0-9.993,5.099-9.993,11.367c0,3.974,1.805,7.472,4.528,9.505v1.206l-8.68,2.76c-3.22,0.085-7.89,2.378-8.443,6.074l-1.211,8.327l2.229,0.324l0.185-1.276l1.024-7.047c0.333-2.236,3.796-4.152,6.397-4.152l8.833-2.774c0.291,0.608,0.811,1.246,1.712,1.821c1.038,0.663,2.228,0.994,3.418,0.994c0.378,0,0.753-0.046,1.126-0.112c0.802-0.144,1.583-0.43,2.292-0.882c0.893-0.57,1.411-1.201,1.703-1.803l8.501,2.703l0.341,0.053c2.601,0,6.064,1.916,6.397,4.147l0.206,1.422l0.164,1.126l0.163,1.126l0.491,3.379l0.185,1.276l2.229-0.324l-0.629-4.331H86.11V13.89z M40.901,69.395c0,0.123-0.007,0.413-0.302,0.782c-0.149,0.186-0.367,0.391-0.705,0.607v0.001c-0.339,0.216-0.703,0.377-1.08,0.483c-1.112,0.316-2.331,0.156-3.332-0.484c-0.344-0.219-0.564-0.427-0.713-0.616c-0.288-0.364-0.294-0.651-0.294-0.772v-0.304v-0.424c0.211,0.082,0.426,0.153,0.643,0.219c0.796,0.241,1.627,0.382,2.487,0.391c0.028,0,0.055,0.004,0.083,0.004c0.027,0,0.054-0.004,0.082-0.004c0.353-0.003,0.701-0.029,1.044-0.073c0.494-0.063,0.975-0.175,1.444-0.318c0.217-0.066,0.432-0.137,0.643-0.219v0.424V69.395z M37.688,48.799c0.383,0,0.757,0.044,1.126,0.107c3.735,0.646,6.615,4.433,6.615,9.007c0,3.303-1.505,6.192-3.744,7.791c-0.731,0.522-1.536,0.912-2.398,1.126c-0.155,0.039-0.315,0.063-0.473,0.09c-0.246,0.042-0.497,0.071-0.75,0.085c-0.125,0.007-0.249,0.023-0.376,0.023c-0.127,0-0.25-0.015-0.376-0.023c-0.416-0.024-0.826-0.077-1.223-0.175c-0.862-0.215-1.667-0.604-2.398-1.126c-2.24-1.599-3.744-4.489-3.744-7.791C29.948,52.888,33.42,48.799,37.688,48.799z M47.823,28.529h31.53v2.252h-31.53V28.529z M70.345,35.286v-2.252h9.008v2.252H70.345z M47.823,33.033h9.008v2.252h-9.008V33.033z M59.084,35.286v-2.252h9.009v2.252H59.084z M47.823,37.538H74.85v2.252H47.823V37.538z M48.949,48.799h27.027v2.252H48.949V48.799z M51.201,55.555v-2.252H74.85v2.252H51.201z M45.571,29.655c-2.252,0,0,0-2.252,0v-2.252h2.252V29.655z M63.588,44.295v2.252H54.58v-2.252H63.588z M47.823,44.295h4.504v2.252h-4.504V44.295z M79.354,46.547H65.84v-2.252h13.513V46.547z M43.319,43.168h2.252v2.252c-2.252,0,0,0-2.252,0V43.168z M60.21,66.816h-9.009v-2.252h9.009V66.816z M79.354,66.816h-5.63v-2.252h5.63V66.816z M71.471,64.564v2.252h-9.009v-2.252H71.471z M62.462,69.069H74.85v2.252H62.462V69.069z M79.354,62.312H51.201V60.06h28.152V62.312z M47.823,18.395v6.756H74.85v-6.756H47.823z M72.597,22.899H50.075v-2.252h22.522V22.899z M27.553,45.42c4.696,0,8.838-2.409,11.261-6.054c1.422-2.139,2.252-4.703,2.252-7.459s-0.83-5.32-2.252-7.459c-2.422-3.645-6.565-6.054-11.261-6.054c-7.451,0-13.513,6.062-13.513,13.513C14.04,39.358,20.102,45.42,27.553,45.42z M27.553,20.647c6.209,0,11.261,5.051,11.261,11.261s-5.052,11.261-11.261,11.261c-6.209,0-11.261-5.051-11.261-11.261S21.344,20.647,27.553,20.647z M21.923,35.286h2.252v2.252c0,1.243,1.01,2.252,2.252,2.252h2.252c1.242,0,2.252-1.01,2.252-2.252v-2.252h2.252c1.242,0,2.252-1.01,2.252-2.252v-2.252c0-1.242-1.01-2.252-2.252-2.252h-2.252v-2.252c0-1.242-1.01-2.252-2.252-2.252h-2.252c-1.242,0-2.252,1.01-2.252,2.252v2.252h-2.252c-1.242,0-2.252,1.01-2.252,2.252v2.252C19.671,34.276,20.681,35.286,21.923,35.286z M26.427,26.277h2.252v4.505h4.504v2.252h-4.504v4.505h-2.252v-4.505h-4.504v-2.252h4.504V26.277z M52.493,79.192h2.252v0.011v1.126v1.126v3.379v1.126h-2.252v-1.126v-3.379v-1.126v-1.126V79.192z M20.632,79.192h2.252v5.642v1.126h-2.252v-1.126V79.192z"></path></svg>