<svg width="22" height="20" viewBox="0 0 22 20" fill="none" xmlns="http://www.w3.org/2000/svg">
<path fill-rule="evenodd" clip-rule="evenodd" d="M13.8013 10.521C13.9067 10.4018 14.0121 10.2737 14.1174 10.1407L14.1173 10.1407C14.3499 9.85247 14.5656 9.55098 14.7634 9.238C15.583 7.99026 16.0268 6.53325 16.0419 5.0405C16.0419 3.23978 15.0812 1.57564 13.5216 0.675273C11.9621 -0.225091 10.0407 -0.225091 8.48114 0.675273C6.92159 1.57564 5.96089 3.23978 5.96089 5.0405C5.96655 6.45079 6.35797 7.83252 7.09264 9.0364C7.25602 9.30812 7.43353 9.57125 7.62418 9.82456C7.85723 10.1453 8.1097 10.4513 8.3803 10.7409C8.62909 11.0129 8.89221 11.2714 9.16846 11.5154C9.66361 11.9637 10.199 12.3656 10.7677 12.716V12.7158L11.0014 12.8579L11.2351 12.716C12.0012 12.231 12.7086 11.6591 13.343 11.0113C13.4943 10.8601 13.6959 10.6402 13.8013 10.521ZM9.21935 3.28579C9.69208 2.81307 10.3331 2.54763 11.0015 2.54763C11.6695 2.54878 12.3099 2.81472 12.7823 3.28711C13.2547 3.75951 13.5206 4.39993 13.5218 5.06793C13.5218 5.73626 13.2563 6.37737 12.7836 6.85006C12.3109 7.32261 11.6698 7.58822 11.0015 7.58822C10.3331 7.58822 9.69204 7.32258 9.21935 6.85006C8.74663 6.37733 8.48119 5.73626 8.48119 5.06793C8.48119 4.39942 8.74666 3.75832 9.21935 3.28579ZM4.17802 9.91606L0.0539589 18.247L0.0538712 18.2468C-0.0307274 18.4055 -0.0146065 18.5992 0.0950928 18.7416C0.204647 18.8782 0.382496 18.9406 0.55336 18.902V18.9018L7.19333 17.2248L7.38115 16.2212L8.19224 11.8542C8.14105 11.8001 8.08936 11.7464 8.03798 11.693C7.93303 11.5839 7.82938 11.4763 7.73398 11.3686C7.44161 11.058 7.16902 10.7288 6.91837 10.3835H6.91821C6.72123 10.1223 6.52876 9.83811 6.32714 9.51283L6.18968 9.27448L4.48052 9.67771C4.34789 9.70531 4.23586 9.79356 4.17802 9.91606ZM14.4841 11.1309C14.5952 11.007 14.7022 10.8753 14.8127 10.7393L14.837 10.7094L14.8368 10.7092C15.0903 10.3954 15.3245 10.0665 15.5381 9.72407C15.7383 9.41359 15.919 9.09062 16.0787 8.7572L17.2519 8.29893H17.2517C17.4673 8.216 17.7108 8.30641 17.8199 8.50969L21.944 16.3777V16.3778C22.0082 16.4953 22.0176 16.635 21.9701 16.7601C21.9226 16.8851 21.8227 16.9832 21.6967 17.0284L15.6435 19.2142L15.4877 18.2977L14.3193 11.3186L14.4841 11.1309ZM10.2682 13.4858C9.82952 13.2089 9.41001 12.9027 9.01259 12.5695L8.32078 16.2854L8.14659 17.2019L14.7176 19.2731L14.5481 18.2468L13.5171 12.1387C12.9571 12.6494 12.3529 13.1095 11.7115 13.5134V13.5133L11.0013 13.9441L10.2682 13.4858Z" fill="#495057"/>
</svg>
