<svg width="24" height="20" viewBox="0 0 24 20" fill="none" xmlns="http://www.w3.org/2000/svg">
<path fill-rule="evenodd" clip-rule="evenodd" d="M16.6832 0.296307C18.4116 0.156341 19.9919 0.70785 21.1441 1.86008C22.3457 3.06167 23.0124 4.6667 23.0124 6.38684C23.0124 7.06176 22.9054 7.69549 22.7161 8.36216H18.8395L16.93 5.19345C16.7572 4.91361 16.4527 4.76546 16.1317 4.79839C15.8107 4.83954 15.5391 5.05353 15.4403 5.35806L13.5226 11.0865L12.3539 8.3622C12.2223 8.05767 11.926 7.86837 11.5968 7.86837H9.58029C9.30869 7.86837 9.05354 8.00005 8.89716 8.23051L8.09883 9.43218L6.78196 5.50623C6.68319 5.19346 6.39513 4.97125 6.06591 4.94655C5.73669 4.92186 5.42393 5.0947 5.27578 5.391L3.76137 8.36217H0.30453C0.106999 7.70373 0 7.07819 0 6.39506C0 4.68312 0.666716 3.06995 1.86831 1.86831C3.06991 0.666671 4.67491 0 6.39506 0C7.68725 0 9.2593 0.847693 10.9383 2.46091C11.2592 2.77366 11.7613 2.76543 12.0823 2.45268C13.3333 1.21812 15.0042 0.427994 16.6832 0.296307ZM16.4356 7.57187L17.662 9.60483L17.6623 9.60487C17.8104 9.85178 18.0738 9.99993 18.3701 9.99993H21.901C21.6788 10.3291 21.4319 10.6254 21.152 10.9053L11.5057 20L1.8594 10.9053C1.57957 10.6254 1.33265 10.3292 1.11043 9.99993H4.26273C4.5755 9.99993 4.85533 9.8271 4.99525 9.55549L5.85122 7.88471L7.08577 11.5555C7.18455 11.8518 7.44792 12.0658 7.76068 12.1069C8.07343 12.1481 8.37796 12.0082 8.55081 11.7448L10.0323 9.5061H11.0611L12.8636 13.7283C12.9953 14.0328 13.2916 14.2221 13.6208 14.2221H13.6537C13.9994 14.2139 14.2957 13.9834 14.4027 13.6625L16.4356 7.57187Z" fill="#495057"/>
</svg>
