<svg width="13" height="14" viewBox="0 0 13 14" fill="none" xmlns="http://www.w3.org/2000/svg">
<path fill-rule="evenodd" clip-rule="evenodd" d="M11.4216 0.519308C11.3524 0.544048 11.2613 0.58836 11.2192 0.617774C11.1771 0.647187 9.95873 1.83952 8.51171 3.26738C7.06468 4.69526 5.55476 6.18461 5.15632 6.57714L4.43191 7.29075L3.01769 5.82255C2.23985 5.01505 1.5292 4.29588 1.43846 4.22441C0.982298 3.8652 0.34782 4.015 0.069474 4.54764C-0.0312625 4.74035 -0.0209495 5.11991 0.0906632 5.32861C0.14691 5.43379 0.79765 6.13271 1.89386 7.26527C2.83723 8.23994 3.69434 9.11517 3.79852 9.21022C4.00552 9.39911 4.17697 9.46756 4.4417 9.46703C4.81208 9.4663 4.68372 9.5823 8.67992 5.63711C10.7218 3.62135 12.4281 1.92362 12.4719 1.86444C12.7172 1.53271 12.6473 0.964124 12.328 0.695084C12.0771 0.483535 11.7173 0.41378 11.4216 0.519308Z" fill="#0AD164"/>
<path fill-rule="evenodd" clip-rule="evenodd" d="M11.4216 4.51931C11.3524 4.54405 11.2613 4.58836 11.2192 4.61777C11.1771 4.64719 9.95873 5.83952 8.51171 7.26738C7.06468 8.69526 5.55476 10.1846 5.15632 10.5771L4.43191 11.2907L3.01769 9.82255C2.23985 9.01505 1.5292 8.29588 1.43846 8.22441C0.982298 7.8652 0.34782 8.015 0.069474 8.54764C-0.0312625 8.74035 -0.0209495 9.11991 0.0906632 9.32861C0.14691 9.43379 0.79765 10.1327 1.89386 11.2653C2.83723 12.2399 3.69434 13.1152 3.79852 13.2102C4.00552 13.3991 4.17697 13.4676 4.4417 13.467C4.81208 13.4663 4.68372 13.5823 8.67992 9.63711C10.7218 7.62135 12.4281 5.92362 12.4719 5.86444C12.7172 5.53271 12.6473 4.96412 12.328 4.69508C12.0771 4.48353 11.7173 4.41378 11.4216 4.51931Z" fill="#0AD164"/>
</svg>
