<svg width="13" height="10" viewBox="0 0 13 10" fill="none" xmlns="http://www.w3.org/2000/svg">
<path opacity="0.35" fill-rule="evenodd" clip-rule="evenodd" d="M11.4216 0.519308C11.3524 0.544048 11.2613 0.58836 11.2192 0.617774C11.1771 0.647187 9.95873 1.83952 8.51171 3.26738C7.06468 4.69526 5.55476 6.18461 5.15632 6.57714L4.43191 7.29075L3.01769 5.82255C2.23985 5.01505 1.5292 4.29588 1.43846 4.22441C0.982298 3.8652 0.34782 4.015 0.069474 4.54764C-0.0312625 4.74035 -0.0209495 5.11991 0.0906632 5.32861C0.14691 5.43379 0.79765 6.13271 1.89386 7.26527C2.83723 8.23994 3.69434 9.11517 3.79852 9.21022C4.00552 9.39911 4.17697 9.46756 4.4417 9.46703C4.81208 9.4663 4.68372 9.5823 8.67992 5.63711C10.7218 3.62135 12.4281 1.92362 12.4719 1.86444C12.7172 1.53271 12.6473 0.964124 12.328 0.695084C12.0771 0.483535 11.7173 0.41378 11.4216 0.519308Z" fill="#26323C"/>
</svg>
