<svg id="Layer_1" height="512" viewBox="0 0 63 63" width="512" xmlns="http://www.w3.org/2000/svg"><g><path d="m59.5 7.5h-35c0-2.8-2.2-5-5-5h-8c-2.8 0-5 2.2-5 5h-3c-1.7 0-3 1.3-3 3v42c0 1.7 1.3 3 3 3h3c0 2.8 2.2 5 5 5h8c2.8 0 5-2.2 5-5h35c1.7 0 3-1.3 3-3v-42c0-1.7-1.3-3-3-3zm-56 46c-.6 0-1-.4-1-1v-42c0-.6.4-1 1-1h3v44zm19 2c0 1.7-1.3 3-3 3h-8c-1.7 0-3-1.3-3-3v-48c0-1.7 1.3-3 3-3h8c1.7 0 3 1.3 3 3zm38-3c0 .6-.4 1-1 1h-35v-44h35c.6 0 1 .4 1 1z"/><path d="m28.5 21.5h28v-10h-28zm2-8h24v6h-24z"/><path d="m28.5 31.5h8v-8h-8zm2-6h4v4h-4z"/><path d="m38.5 31.5h8v-8h-8zm2-6h4v4h-4z"/><path d="m48.5 31.5h8v-8h-8zm2-6h4v4h-4z"/><path d="m28.5 41.5h8v-8h-8zm2-6h4v4h-4z"/><path d="m38.5 41.5h8v-8h-8zm2-6h4v4h-4z"/><path d="m48.5 41.5h8v-8h-8zm2-6h4v4h-4z"/><path d="m28.5 51.5h8v-8h-8zm2-6h4v4h-4z"/><path d="m38.5 51.5h8v-8h-8zm2-6h4v4h-4z"/><path d="m48.5 51.5h8v-8h-8zm2-6h4v4h-4z"/><path d="m41.5 15.5h2v2h-2z"/><path d="m45.5 15.5h2v2h-2z"/><path d="m37.5 15.5h2v2h-2z"/></g></svg>