<svg width="48" height="48" viewBox="0 0 48 48" fill="none" xmlns="http://www.w3.org/2000/svg">
<path d="M4.5 24C4.5 34.7691 13.2309 43.5 24 43.5C34.7691 43.5 43.5 34.7691 43.5 24C43.5 13.2309 34.7691 4.5 24 4.5C13.2309 4.5 4.5 13.2309 4.5 24ZM24.4359 15.435C24.5758 15.5737 24.687 15.7387 24.7631 15.9204C24.8393 16.1021 24.8788 16.297 24.8796 16.494C24.8804 16.691 24.8424 16.8863 24.7677 17.0686C24.693 17.2509 24.5831 17.4167 24.4444 17.5566L19.5394 22.5H32.0625C32.4603 22.5 32.8419 22.658 33.1232 22.9393C33.4045 23.2206 33.5625 23.6022 33.5625 24C33.5625 24.3978 33.4045 24.7794 33.1232 25.0607C32.8419 25.342 32.4603 25.5 32.0625 25.5H19.5394L24.4444 30.4434C24.5831 30.5834 24.6929 30.7494 24.7676 30.9318C24.8422 31.1142 24.8801 31.3095 24.8793 31.5066C24.8784 31.7037 24.8387 31.8987 24.7625 32.0805C24.6863 32.2622 24.575 32.4272 24.435 32.5659C24.295 32.7047 24.1291 32.8145 23.9467 32.8891C23.7642 32.9637 23.5689 33.0017 23.3718 33.0008C23.1747 33 22.9797 32.9603 22.798 32.8841C22.6162 32.8078 22.4513 32.6965 22.3125 32.5566L14.8697 25.0566C14.5909 24.7756 14.4344 24.3958 14.4344 24C14.4344 23.6042 14.5909 23.2244 14.8697 22.9434L22.3125 15.4434C22.4513 15.3033 22.6163 15.1919 22.7982 15.1156C22.9801 15.0393 23.1752 14.9996 23.3725 14.9988C23.5697 14.998 23.7652 15.0362 23.9476 15.111C24.1301 15.1858 24.2961 15.2959 24.4359 15.435Z" fill="#1B1B1B"/>
</svg>
