<svg width="24" height="24" viewBox="0 0 24 24" fill="currentColor" xmlns="http://www.w3.org/2000/svg">
  <path fill-rule="evenodd" clip-rule="evenodd"
    d="M9.966 1.25H12a.75.75 0 0 1 0 1.5h-2c-1.413 0-2.427 0-3.223.066-.787.064-1.295.188-1.706.397a4.25 4.25 0 0 0-1.858 1.858c-.21.411-.333.919-.397 1.706-.065.796-.066 1.81-.066 3.223v4c0 1.412 0 2.427.066 3.223.064.787.188 1.295.397 1.707a4.25 4.25 0 0 0 1.858 1.857c.411.21.919.333 1.706.397.796.065 1.81.066 3.223.066h4c1.412 0 2.427 0 3.223-.066.787-.064 1.295-.188 1.707-.397a4.251 4.251 0 0 0 1.857-1.857c.21-.412.333-.92.397-1.707.065-.796.066-1.81.066-3.223v-2a.75.75 0 0 1 1.5 0v2.034c0 1.371 0 2.447-.07 3.311-.072.88-.221 1.607-.557 2.265a5.75 5.75 0 0 1-2.513 2.513c-.658.336-1.385.485-2.265.556-.864.071-1.94.071-3.311.071H9.966c-1.371 0-2.447 0-3.311-.07-.88-.072-1.607-.221-2.265-.557a5.75 5.75 0 0 1-2.513-2.513c-.336-.658-.484-1.385-.556-2.265-.071-.864-.071-1.94-.071-3.311V9.966c0-1.371 0-2.447.07-3.311.073-.88.221-1.607.557-2.265A5.75 5.75 0 0 1 4.39 1.877c.658-.336 1.385-.484 2.265-.556.864-.071 1.94-.071 3.311-.071Zm9.875 2.653a1.25 1.25 0 0 0-1.682 0 4.748 4.748 0 0 0-.129.127l-.307.307a1.903 1.903 0 0 0 1.94 1.94l.307-.307c.085-.086.11-.11.127-.13a1.25 1.25 0 0 0 0-1.68 4.742 4.742 0 0 0-.127-.13 4.748 4.748 0 0 0-.13-.127Zm-1.45 3.645a3.428 3.428 0 0 1-1.939-1.94l-2.668 2.669c-.483.483-.665.668-.811.871a3.25 3.25 0 0 0-.346.61c-.099.23-.164.48-.33 1.144l-.266 1.067 1.067-.267c.663-.165.914-.23 1.144-.33a3.19 3.19 0 0 0 .61-.345c.203-.146.388-.328.871-.81l2.669-2.67Zm-1.24-4.755a2.75 2.75 0 0 1 3.867.164l.012.013.013.012c.067.068.12.12.163.168a2.75 2.75 0 0 1-.163 3.868l-.013.012-4.246 4.247-.044.044c-.425.425-.698.698-1.012.924-.279.2-.578.37-.892.505-.355.153-.73.247-1.313.392l-.06.016-2.281.57a.75.75 0 0 1-.91-.91l.57-2.28.016-.06c.145-.583.239-.959.392-1.314.136-.314.305-.613.505-.892.226-.314.5-.587.924-1.012l.044-.044L16.97 2.97l.012-.013c.068-.067.12-.12.168-.164Z" />
</svg>
