<svg width="20" height="21" viewBox="0 0 20 21" fill="none" xmlns="http://www.w3.org/2000/svg">
<path d="M9.99 12.8869V9.16694H19.35C19.49 9.79694 19.6 10.3869 19.6 11.2169C19.6 16.9269 15.77 20.9869 10 20.9869C4.48 20.9869 0 16.5069 0 10.9869C0 5.46694 4.48 0.986938 10 0.986938C12.7 0.986938 14.96 1.97694 16.69 3.59694L13.85 6.35694C13.13 5.67694 11.87 4.87694 10 4.87694C6.69 4.87694 3.99 7.62694 3.99 10.9969C3.99 14.3669 6.69 17.1169 10 17.1169C13.83 17.1169 15.24 14.4669 15.5 12.8969H9.99V12.8869Z" fill="black"/>
</svg>
