<svg width="22" height="22" viewBox="0 0 22 22" fill="none" xmlns="http://www.w3.org/2000/svg">
<path d="M0.25 9.24998C0.25 11.6369 1.19821 13.9261 2.88604 15.6139C4.57387 17.3018 6.86305 18.25 9.25 18.25C11.2487 18.2525 13.1903 17.5828 14.7625 16.3487L19.7012 21.2987C19.8058 21.4042 19.9303 21.4879 20.0673 21.545C20.2044 21.6021 20.3515 21.6315 20.5 21.6315C20.6485 21.6315 20.7956 21.6021 20.9326 21.545C21.0697 21.4879 21.1942 21.4042 21.2987 21.2987C21.4042 21.1941 21.4879 21.0697 21.545 20.9326C21.6021 20.7955 21.6315 20.6485 21.6315 20.5C21.6315 20.3515 21.6021 20.2044 21.545 20.0673C21.4879 19.9302 21.4042 19.8058 21.2987 19.7012L16.3487 14.7625C17.5829 13.1902 18.2525 11.2487 18.25 9.24998C18.25 6.86304 17.3018 4.57385 15.614 2.88602C13.9261 1.1982 11.6369 0.249985 9.25 0.249985C6.86305 0.249985 4.57387 1.1982 2.88604 2.88602C1.19821 4.57385 0.25 6.86304 0.25 9.24998V9.24998ZM9.25 2.49998C10.585 2.49998 11.8901 2.89587 13.0001 3.63756C14.1101 4.37926 14.9753 5.43347 15.4862 6.66687C15.9971 7.90027 16.1307 9.25747 15.8703 10.5668C15.6098 11.8762 14.967 13.0789 14.023 14.023C13.079 14.967 11.8762 15.6098 10.5669 15.8703C9.25749 16.1307 7.90029 15.9971 6.66689 15.4862C5.43349 14.9753 4.37928 14.1101 3.63758 13.0001C2.89588 11.8901 2.5 10.585 2.5 9.24998C2.5 7.45977 3.21116 5.74288 4.47703 4.47701C5.7429 3.21114 7.45979 2.49998 9.25 2.49998V2.49998Z" fill="#F5F5F5"/>
</svg>
