<svg width="44" height="44" viewBox="0 0 44 44" fill="none" xmlns="http://www.w3.org/2000/svg">
<rect x="0.5" y="0.5" width="43" height="43" rx="21.5" fill="#0A050F" fill-opacity="0.12"/>
<rect x="0.5" y="0.5" width="43" height="43" rx="21.5" stroke="url(#paint0_linear_1001_1174)"/>
<path fill-rule="evenodd" clip-rule="evenodd" d="M21.1665 12.2083C16.6792 12.2083 13.0415 15.846 13.0415 20.3333C13.0415 24.8206 16.6792 28.4583 21.1665 28.4583C25.6538 28.4583 29.2915 24.8206 29.2915 20.3333C29.2915 15.846 25.6538 12.2083 21.1665 12.2083ZM14.2915 20.3333C14.2915 16.5364 17.3695 13.4583 21.1665 13.4583C24.9635 13.4583 28.0415 16.5364 28.0415 20.3333C28.0415 24.1303 24.9635 27.2083 21.1665 27.2083C17.3695 27.2083 14.2915 24.1303 14.2915 20.3333Z" fill="#333333"/>
<path d="M28.2752 26.5581C28.0311 26.3141 27.6354 26.3141 27.3913 26.5581C27.1472 26.8022 27.1472 27.1979 27.3913 27.442L30.7245 30.7753C30.9686 31.0194 31.3643 31.0194 31.6084 30.7753C31.8525 30.5312 31.8525 30.1355 31.6084 29.8914L28.2752 26.5581Z" fill="#333333"/>
<defs>
<linearGradient id="paint0_linear_1001_1174" x1="17.765" y1="58.7632" x2="53.1918" y2="28.2144" gradientUnits="userSpaceOnUse">
<stop stop-color="#0A050F" stop-opacity="0.64"/>
<stop offset="0.5" stop-color="#0A050F" stop-opacity="0.24"/>
<stop offset="1" stop-color="#0A050F" stop-opacity="0.64"/>
</linearGradient>
</defs>
</svg>
