<svg width="20" height="20" viewBox="0 0 20 20" xmlns="http://www.w3.org/2000/svg" fill="currentColor">
<path  fill-rule="evenodd" clip-rule="evenodd" d="M9.2299 0.916717L9.1211 0.916609C8.6085 0.915844 8.15859 0.915172 7.75771 1.07284C7.40717 1.2107 7.09685 1.43437 6.85521 1.72332C6.57886 2.05378 6.43723 2.48081 6.27585 2.96735L6.24155 3.0706L6.12618 3.41672H3.33341H1.66675C1.25253 3.41672 0.916748 3.7525 0.916748 4.16672C0.916748 4.58093 1.25253 4.91672 1.66675 4.91672H2.62624L3.0755 12.5542L3.0772 12.5831C3.13252 13.5237 3.17643 14.2701 3.25604 14.8731C3.33753 15.4901 3.46244 16.0126 3.70779 16.4932C4.20619 17.4694 5.02689 18.2433 6.03074 18.6835C6.52491 18.9002 7.05378 18.9942 7.67458 19.0393C8.28115 19.0834 9.0288 19.0834 9.97086 19.0834H9.97092H9.97097H9.97102H10.0001H10.0291H10.0292H10.0292H10.0293C10.9714 19.0834 11.719 19.0834 12.3256 19.0393C12.9464 18.9942 13.4753 18.9002 13.9694 18.6835C14.9733 18.2433 15.794 17.4694 16.2924 16.4932C16.5377 16.0126 16.6626 15.4901 16.7441 14.8731C16.8237 14.2701 16.8676 13.5238 16.9229 12.5834L16.923 12.5833L16.923 12.5832L16.9247 12.5542L17.3739 4.91672H18.3334C18.7476 4.91672 19.0834 4.58093 19.0834 4.16672C19.0834 3.7525 18.7476 3.41672 18.3334 3.41672H16.6667H13.874L13.7586 3.0706L13.7243 2.96735C13.5629 2.48081 13.4213 2.05378 13.145 1.72332C12.9033 1.43437 12.593 1.2107 12.2425 1.07284C11.8416 0.915172 11.3917 0.915844 10.8791 0.916609L10.7703 0.916717H9.2299ZM13.3159 4.91672C13.3275 4.91699 13.3391 4.91699 13.3507 4.91672H15.8713L15.4273 12.4661C15.3698 13.442 15.3287 14.1341 15.257 14.6767C15.1864 15.2114 15.0923 15.5449 14.9564 15.8111C14.6154 16.4791 14.0539 17.0086 13.367 17.3098C13.0933 17.4298 12.7548 17.5042 12.2169 17.5433C11.671 17.5829 10.9777 17.5834 10.0001 17.5834C9.02244 17.5834 8.32917 17.5829 7.78328 17.5433C7.24536 17.5042 6.9069 17.4298 6.63315 17.3098C5.94631 17.0086 5.38477 16.4791 5.04376 15.8111C4.90785 15.5449 4.81374 15.2114 4.74314 14.6767C4.67149 14.1341 4.63032 13.442 4.57291 12.4661L4.12883 4.91672H6.64948C6.66109 4.91699 6.67268 4.91699 6.68423 4.91672H13.3159ZM12.2926 3.41672C12.1109 2.87683 12.0586 2.7625 11.9943 2.68558C11.9137 2.58927 11.8103 2.51471 11.6934 2.46876C11.5932 2.42932 11.4563 2.41672 10.7703 2.41672H9.2299C8.54388 2.41672 8.40699 2.42932 8.30672 2.46876C8.18987 2.51471 8.08643 2.58927 8.00588 2.68558C7.94157 2.7625 7.88926 2.87683 7.70751 3.41672H12.2926ZM9.08341 8.33338C9.08341 7.91917 8.74763 7.58338 8.33341 7.58338C7.9192 7.58338 7.58341 7.91917 7.58341 8.33338V14.1667C7.58341 14.5809 7.9192 14.9167 8.33341 14.9167C8.74763 14.9167 9.08341 14.5809 9.08341 14.1667V8.33338ZM11.6667 7.58338C12.081 7.58338 12.4167 7.91917 12.4167 8.33338V11.6667C12.4167 12.0809 12.081 12.4167 11.6667 12.4167C11.2525 12.4167 10.9167 12.0809 10.9167 11.6667V8.33338C10.9167 7.91917 11.2525 7.58338 11.6667 7.58338Z" />
</svg>
